<?xml version="1.0" encoding="UTF-8"?>
<svg version="1.1" xmlns="http://www.w3.org/2000/svg" width="500" height="500">
<path d="M0 0 C1.41631161 -0.00374367 2.83262115 -0.00834803 4.24892747 -0.01373065 C8.11341964 -0.02588762 11.97782476 -0.02570887 15.84233165 -0.02334189 C20.02111166 -0.02293186 24.19986444 -0.0339906 28.37863159 -0.04345703 C36.55572253 -0.06002817 44.73278463 -0.06556483 52.90989096 -0.06668179 C59.56137489 -0.06763417 66.21284936 -0.07175392 72.86433029 -0.07808304 C91.74933897 -0.09568531 110.63432496 -0.10492357 129.5193419 -0.10342209 C131.04460302 -0.10330222 131.04460302 -0.10330222 132.60067749 -0.10317993 C134.12781502 -0.10305729 134.12781502 -0.10305729 135.68580382 -0.10293217 C152.17623469 -0.10211969 168.66657413 -0.12125038 185.15697856 -0.14945666 C202.11551149 -0.17823326 219.0739999 -0.19199432 236.03255785 -0.19026911 C245.54288941 -0.18960683 255.05312512 -0.19502788 264.5634346 -0.21662521 C272.66218393 -0.23490003 280.76079398 -0.23913293 288.85955508 -0.22560637 C292.98527797 -0.21910818 297.11073415 -0.21884432 301.23643112 -0.23631287 C339.76176783 -0.38931831 339.76176783 -0.38931831 355.04452515 7.95492554 C355.69493774 8.29523804 356.34535034 8.63555054 357.01547241 8.98617554 C363.4203417 12.44359485 369.12465063 16.62599291 374.73202515 21.26742554 C375.54284546 21.92613647 376.35366577 22.58484741 377.1890564 23.26351929 C393.37998768 36.97202499 404.14418059 56.44537539 407.73202515 77.26742554 C408.12096575 82.11613461 408.13818016 86.93366102 408.11297607 91.7960968 C408.11644124 93.21627379 408.12121153 94.63644808 408.12715781 96.05661684 C408.1395798 99.9224328 408.13353801 103.78802409 408.12419915 107.65384042 C408.11737249 111.83730103 408.12790775 116.02072474 408.13613892 120.20417786 C408.14944042 128.38535744 408.14661444 136.56645421 408.13790099 144.74763697 C408.13111024 151.40053177 408.13021373 158.05340346 408.13347244 164.70630074 C408.13393214 165.65522151 408.13439184 166.60414229 408.13486547 167.58181824 C408.1358247 169.50988607 408.13679734 171.43795389 408.13778324 173.3660217 C408.14632676 191.42264403 408.13651956 209.47922058 408.12038215 227.53583539 C408.10698208 243.00815594 408.10930651 258.48040894 408.12313843 273.95272827 C408.13921635 291.94568494 408.14550061 309.93860154 408.13630164 327.93156439 C408.13534605 329.85262111 408.13440294 331.77367784 408.13347244 333.69473457 C408.13300962 334.6397837 408.13254679 335.58483282 408.13206994 336.55851979 C408.12948652 343.19807493 408.13383708 349.83760451 408.1409111 356.47715569 C408.14935101 364.57629814 408.1469939 372.67535344 408.13106887 380.774486 C408.12321921 384.90182756 408.12003766 389.02902416 408.13001633 393.15636444 C408.13903298 396.94326128 408.1339173 400.72988037 408.11808367 404.51675243 C408.11320724 406.51694973 408.12286965 408.5171667 408.13325536 410.51734298 C407.97223991 435.5888258 397.32306041 457.72642799 379.73202515 475.26742554 C361.06306212 492.35139141 339.94571874 500.59565303 314.69819641 500.53485107 C313.29512224 500.53859372 311.89205014 500.54319768 310.48898131 500.54858172 C306.65643435 500.56075156 302.82397508 500.56055839 298.99141324 500.55819297 C294.848744 500.55778326 290.7061023 500.56883868 286.56344604 500.57830811 C278.45506625 500.59488682 270.34671555 500.60041626 262.23832022 500.60153286 C255.64259038 500.60248497 249.04687009 500.6066034 242.45114326 500.61293411 C223.72623898 500.63053921 205.00135758 500.63977431 186.27644496 500.63827316 C184.76377722 500.6381533 184.76377722 500.6381533 183.22055054 500.63803101 C181.70602252 500.63790836 181.70602252 500.63790836 180.16089798 500.63778324 C163.80943351 500.6369709 147.45806127 500.6560974 131.10662346 500.68430774 C114.29276372 500.7130855 97.47894889 500.7268453 80.66506392 500.72512019 C71.2352007 500.7244579 61.80543413 500.72987913 52.37559319 500.75147629 C44.34452519 500.76975274 36.31359765 500.77398276 28.28251778 500.76045744 C24.19123055 500.75395979 20.10021227 500.75369335 16.00895119 500.77116394 C-15.35123285 500.89671103 -15.35123285 500.89671103 -29.26797485 496.26742554 C-30.43786485 495.89978277 -31.60775484 495.53214001 -32.81309605 495.15335655 C-55.19278786 487.80750758 -73.5958797 468.81280633 -84.26797485 448.26742554 C-90.68454752 435.15928424 -92.72338279 422.132012 -92.65565491 407.63868713 C-92.65983927 406.21978455 -92.66532277 404.80088532 -92.67197472 403.38199216 C-92.68630384 399.52423393 -92.68222435 395.6666916 -92.67480791 391.80892217 C-92.67004712 387.63223342 -92.68261167 383.45558945 -92.69282532 379.27891541 C-92.70996232 371.11224534 -92.71086391 362.94565238 -92.70561241 354.77896901 C-92.70155973 348.13613432 -92.70302727 341.49332229 -92.70836067 334.85048866 C-92.70910909 333.90256954 -92.70985752 332.95465043 -92.71062862 331.97800649 C-92.71216021 330.05187739 -92.71369855 328.1257483 -92.71524359 326.19961921 C-92.72895033 308.1638878 -92.72354392 290.12819984 -92.71205837 272.09246943 C-92.70212924 255.62162491 -92.7150644 239.15089278 -92.73899256 222.68006559 C-92.76342268 205.73499267 -92.77298175 188.789972 -92.76633984 171.84488183 C-92.76285613 162.3446614 -92.76502334 152.84452734 -92.78259087 143.3443203 C-92.79736193 135.25661556 -92.79788459 127.16905801 -92.78051995 119.08135601 C-92.77204752 114.96169343 -92.76976744 110.84229323 -92.78517151 106.72264481 C-92.91901964 68.19227088 -92.91901964 68.19227088 -84.51797485 52.89242554 C-84.17435913 52.23870972 -83.83074341 51.5849939 -83.47671509 50.91146851 C-80.26804224 44.96179546 -76.53917442 39.50861126 -72.26797485 34.26742554 C-71.25477173 33.00865601 -71.25477173 33.00865601 -70.22109985 31.72445679 C-52.15112156 10.45596044 -27.60017943 -0.06601804 0 0 Z " fill="#F5E5FC" transform="translate(92.26797485351563,-0.267425537109375)"/>
<path d="M0 0 C1.55367279 -0.01925285 1.55367279 -0.01925285 3.13873291 -0.03889465 C4.82914703 -0.04997505 4.82914703 -0.04997505 6.55371094 -0.0612793 C8.29754059 -0.07338692 8.29754059 -0.07338692 10.07659912 -0.08573914 C12.54812117 -0.09959843 15.0196625 -0.11031228 17.49121094 -0.11816406 C21.23117905 -0.13523825 24.97023092 -0.17909198 28.70996094 -0.22338867 C49.61849278 -0.36032479 64.42577766 2.16324578 80.42089844 16.44262695 C82.03808594 18.17700195 82.03808594 18.17700195 82.03808594 20.17700195 C82.69808594 20.17700195 83.35808594 20.17700195 84.03808594 20.17700195 C84.41320312 19.30688477 84.41320312 19.30688477 84.79589844 18.41918945 C90.24149766 8.58971161 102.75105376 3.22004677 113.03808594 0.17700195 C115.88317871 -0.09042358 115.88317871 -0.09042358 118.85644531 -0.11352539 C119.97780884 -0.1262851 121.09917236 -0.1390448 122.2545166 -0.15219116 C123.45153198 -0.15441681 124.64854736 -0.15664246 125.88183594 -0.15893555 C127.12429077 -0.16559235 128.36674561 -0.17224915 129.64685059 -0.17910767 C132.26927208 -0.18921607 134.8917192 -0.19392525 137.51416016 -0.19360352 C140.19705023 -0.19344052 142.87926083 -0.20739964 145.56201172 -0.23461914 C149.43966502 -0.27125014 153.31652693 -0.28107525 157.19433594 -0.28393555 C158.39135132 -0.29830658 159.5883667 -0.31267761 160.82165527 -0.32748413 C171.3833597 -0.26952888 171.3833597 -0.26952888 176.03808594 4.17700195 C176.97945849 7.0011196 177.15533976 8.70618227 177.13574219 11.6262207 C177.13251953 12.4737793 177.12929688 13.32133789 177.12597656 14.19458008 C177.11759766 15.0756543 177.10921875 15.95672852 177.10058594 16.86450195 C177.09607422 17.75717773 177.0915625 18.64985352 177.08691406 19.56958008 C177.07513576 21.77212182 177.05868758 23.97452794 177.03808594 26.17700195 C177.89789063 26.44254883 178.75769531 26.7080957 179.64355469 26.98168945 C189.71278493 30.52735626 201.69766378 36.44071012 206.62749004 46.38219261 C208.12712763 50.00651437 208.4128725 53.13782281 208.41230774 57.08145142 C208.41628215 57.73979552 208.42025655 58.39813962 208.42435139 59.07643354 C208.43390881 61.26333947 208.42219658 63.44958773 208.41040039 65.63647461 C208.41283067 67.21245565 208.41655229 68.78843514 208.42146301 70.3644104 C208.43084791 74.63341041 208.42146431 78.90218013 208.40813088 83.17116213 C208.39677937 87.65206194 208.40092706 92.13295102 208.40287781 96.61386108 C208.40376016 104.1442234 208.39269721 111.67449561 208.37426758 119.20483398 C208.353147 127.88379954 208.34958065 136.56263271 208.35582954 145.24161875 C208.36154788 153.61532422 208.35584558 161.98898353 208.34465599 170.36268234 C208.34003788 173.91337318 208.33912405 177.46403554 208.34124184 181.01472855 C208.34314173 185.20908054 208.33489177 189.40330011 208.31918144 193.59762192 C208.31497964 195.1273163 208.31405995 196.65702423 208.31687164 198.1867218 C208.34763452 217.93649083 208.34763452 217.93649083 206.03808594 225.17700195 C202.58141062 228.41724346 200.03249742 228.74399931 195.43261719 228.60668945 C191.40799644 227.88448997 188.06649148 225.9000914 185.03808594 223.17700195 C185.03808594 222.51700195 185.03808594 221.85700195 185.03808594 221.17700195 C184.17183594 220.92950195 183.30558594 220.68200195 182.41308594 220.42700195 C179.03808594 219.17700195 179.03808594 219.17700195 176.29199219 217.2668457 C172.85161242 215.05723805 169.46578687 213.71236817 165.60058594 212.48950195 C164.97087891 212.27745117 164.34117187 212.06540039 163.69238281 211.84692383 C144.3213322 205.53590323 125.36961921 209.59698215 107.28808594 217.42700195 C106.59706787 217.72421143 105.9060498 218.0214209 105.1940918 218.32763672 C99.79346723 220.70815465 94.87058986 223.57522955 89.97949219 226.8918457 C85.85208903 228.69518652 82.47106112 228.97909918 78.03808594 228.17700195 C74.66372363 226.76623769 71.66930748 224.90568541 68.60058594 222.92700195 C50.44063272 211.51901815 29.81394188 205.93134025 8.41308594 210.05200195 C6.95106548 210.41235911 5.49249314 210.7870522 4.03808594 211.17700195 C2.33096962 211.55750378 0.62264969 211.93265176 -1.08691406 212.30200195 C-2.36566406 212.59075195 -3.64441406 212.87950195 -4.96191406 213.17700195 C-4.96191406 213.83700195 -4.96191406 214.49700195 -4.96191406 215.17700195 C-8.92191406 216.16700195 -8.92191406 216.16700195 -12.96191406 217.17700195 C-12.96191406 217.83700195 -12.96191406 218.49700195 -12.96191406 219.17700195 C-13.55359375 219.4915332 -14.14527344 219.80606445 -14.75488281 220.13012695 C-19.87945906 222.87499642 -19.87945906 222.87499642 -24.39941406 226.48950195 C-27.85138147 228.76274879 -30.57056962 228.87123264 -34.64941406 228.67700195 C-36.96191406 228.17700195 -36.96191406 228.17700195 -39.52441406 225.80200195 C-43.15022826 216.6586444 -42.12177368 206.10797789 -42.13891602 196.40527344 C-42.1451933 194.83221288 -42.15184118 193.25915376 -42.15882874 191.68609619 C-42.17970332 186.55677288 -42.19020845 181.42744979 -42.20019531 176.2980957 C-42.20424767 174.52452136 -42.20836472 172.75094717 -42.21254539 170.97737312 C-42.23155248 162.64959229 -42.24579853 154.32182013 -42.25415736 145.99402183 C-42.26394398 136.40517242 -42.29031938 126.81655295 -42.33065826 117.22778457 C-42.36084544 109.79565472 -42.37562829 102.36359079 -42.37893838 94.93140084 C-42.38128376 90.50065066 -42.39017923 86.07014745 -42.41539955 81.63946342 C-42.43873435 77.47374541 -42.44289198 73.3084362 -42.43263817 69.14266968 C-42.43214419 67.61933593 -42.43842387 66.09598162 -42.45219421 64.57271004 C-42.53224676 55.18840495 -42.07888661 47.45269598 -36.12988281 39.8293457 C-29.90736071 34.4414025 -19.53462804 26.17700195 -10.96191406 26.17700195 C-11.00832031 24.87504883 -11.05472656 23.5730957 -11.10253906 22.23168945 C-11.14007253 20.50514999 -11.176471 18.77858559 -11.21191406 17.05200195 C-11.2621875 15.7680957 -11.2621875 15.7680957 -11.31347656 14.45825195 C-11.40218216 8.69238822 -10.76346587 5.58398609 -6.96191406 1.17700195 C-4.4780676 -0.06492128 -2.7791412 0.02997738 0 0 Z " fill="#BD65F7" transform="translate(166.9619140625,135.822998046875)"/>
<path d="M0 0 C0.00054477 0.73145296 0.00108953 1.46290592 0.00165081 2.21652412 C0.01662181 20.01907658 0.05908142 37.82136953 0.13209057 55.6237812 C0.16673539 64.23294021 0.19209542 72.84193919 0.19555664 81.45117188 C0.19859725 88.95549844 0.2191006 96.45953997 0.26052457 103.96375644 C0.28184772 107.93682101 0.29445889 111.90948041 0.28615379 115.88260269 C0.27860902 119.62404128 0.29445231 123.36465925 0.32806015 127.10594749 C0.34020542 129.13010451 0.32770923 131.15436263 0.31443787 133.17851257 C0.24246286 140.47637536 0.24246286 140.47637536 3.36471558 146.82440186 C6.52564381 149.43395304 7.85585277 149.67188262 11.90234375 149.4453125 C13.03438232 149.40535156 14.1664209 149.36539063 15.33276367 149.32421875 C16.52232666 149.25847656 17.71188965 149.19273437 18.9375 149.125 C29.1033737 148.81080794 37.48590855 149.0607089 47 153 C47 153.66 47 154.32 47 155 C47.89332031 155.25007812 48.78664063 155.50015625 49.70703125 155.7578125 C53.12801074 157.04828875 54.99169731 158.44923527 57.6875 160.875 C61.97359809 164.43290855 65.72912592 166.25452754 70.9921875 167.94140625 C74.58689911 169.206558 77.97058924 170.80181558 81.375 172.5 C82.51710938 173.0671875 83.65921875 173.634375 84.8359375 174.21875 C87.84324465 175.91175254 90.38043569 177.76306868 93 180 C95.85041483 178.66011542 98.27741551 177.11006199 100.8125 175.25 C107.80575673 170.50249792 115.86628683 167.86350888 123.765625 164.99609375 C126.0096437 163.9957008 127.27104458 163.02736067 129 161.3125 C142.13166533 149.61755954 155.31631327 148.64305526 171.99804688 149.4296875 C173.8146582 149.47222656 173.8146582 149.47222656 175.66796875 149.515625 C176.76391357 149.55977539 177.8598584 149.60392578 178.98901367 149.64941406 C182.34882019 148.92476594 183.83796025 147.85568865 185.94896984 145.15950775 C188.33280311 140.26154514 187.69435383 134.5194234 187.65942383 129.19189453 C187.66788255 127.78214604 187.67852919 126.37240925 187.69119263 124.96269226 C187.71929615 121.14688999 187.71687518 117.33165067 187.70889878 113.51577616 C187.7057703 109.52385096 187.73081801 105.532104 187.75285339 101.54025269 C187.79028343 93.98619453 187.80244076 86.4323164 187.8054778 78.87817466 C187.81016977 70.27593602 187.84309749 61.67387757 187.87837565 53.07171845 C187.9502946 35.38116298 187.98682443 17.69069186 188 0 C198.28884344 3.33619621 208.9876347 8.50016328 216 17 C218.41546338 21.87102093 219.37501174 25.38846739 219.3742218 30.90444946 C219.37819621 31.56279356 219.38217061 32.22113766 219.38626546 32.89943159 C219.39582287 35.08633752 219.38411064 37.27258578 219.37231445 39.45947266 C219.37474474 41.03545369 219.37846635 42.61143319 219.38337708 44.18740845 C219.39276197 48.45640846 219.38337837 52.72517818 219.37004495 56.99416018 C219.35869343 61.47505999 219.36284112 65.95594906 219.36479187 70.43685913 C219.36567422 77.96722145 219.35461128 85.49749366 219.33618164 93.02783203 C219.31506106 101.70679759 219.31149471 110.38563076 219.3177436 119.0646168 C219.32346194 127.43832227 219.31775964 135.81198158 219.30657005 144.18568039 C219.30195195 147.73637123 219.30103811 151.28703358 219.3031559 154.83772659 C219.30505579 159.03207859 219.29680583 163.22629816 219.2810955 167.42061996 C219.2768937 168.95031435 219.27597401 170.48002228 219.27878571 172.00971985 C219.30954859 191.75948888 219.30954859 191.75948888 217 199 C213.54332468 202.2402415 210.99441148 202.56699736 206.39453125 202.4296875 C202.3699105 201.70748802 199.02840554 199.72308945 196 197 C196 196.34 196 195.68 196 195 C195.13375 194.7525 194.2675 194.505 193.375 194.25 C190 193 190 193 187.25390625 191.08984375 C183.81352649 188.8802361 180.42770094 187.53536622 176.5625 186.3125 C175.93279297 186.10044922 175.30308594 185.88839844 174.65429688 185.66992188 C155.28324626 179.35890127 136.33153327 183.41998019 118.25 191.25 C117.55898193 191.54720947 116.86796387 191.84441895 116.15600586 192.15063477 C110.75538129 194.5311527 105.83250392 197.3982276 100.94140625 200.71484375 C96.8140031 202.51818457 93.43297518 202.80209723 89 202 C85.62563769 200.58923574 82.63122154 198.72868346 79.5625 196.75 C61.40254678 185.3420162 40.77585594 179.7543383 19.375 183.875 C17.91297954 184.23535716 16.4544072 184.61005024 15 185 C13.29288368 185.38050183 11.58456375 185.75564981 9.875 186.125 C8.59625 186.41375 7.3175 186.7025 6 187 C6 187.66 6 188.32 6 189 C2.04 189.99 2.04 189.99 -2 191 C-2 191.66 -2 192.32 -2 193 C-2.59167969 193.31453125 -3.18335938 193.6290625 -3.79296875 193.953125 C-8.91754499 196.69799447 -8.91754499 196.69799447 -13.4375 200.3125 C-16.88946741 202.58574683 -19.60865556 202.69423069 -23.6875 202.5 C-26 202 -26 202 -28.5625 199.625 C-32.1883142 190.48164245 -31.15985961 179.93097594 -31.17700195 170.22827148 C-31.18327924 168.65521092 -31.18992712 167.0821518 -31.19691467 165.50909424 C-31.21778925 160.37977093 -31.22829439 155.25044784 -31.23828125 150.12109375 C-31.2423336 148.34751941 -31.24645066 146.57394521 -31.25063133 144.80037117 C-31.26963842 136.47259034 -31.28388446 128.14481818 -31.2922433 119.81701988 C-31.30202992 110.22817047 -31.32840532 100.639551 -31.36874419 91.05078262 C-31.39893138 83.61865277 -31.41371423 76.18658884 -31.41702431 68.75439888 C-31.41936969 64.32364871 -31.42826517 59.8931455 -31.45348549 55.46246147 C-31.47682029 51.29674346 -31.48097792 47.13143425 -31.47072411 42.96566772 C-31.47023012 41.44233398 -31.47650981 39.91897967 -31.49028015 38.39570808 C-31.5703327 29.011403 -31.11697255 21.27569403 -25.16796875 13.65234375 C-18.94544665 8.26440055 -8.57271398 0 0 0 Z " fill="#D8A5FB" transform="translate(156,162)"/>
<path d="M0 0 C0 44.55 0 89.1 0 135 C-5.61 135.33 -11.22 135.66 -17 136 C-34.14421122 139.84266803 -47.67768823 148.05318665 -59.72265625 160.75 C-61 162 -61 162 -62 162 C-62.04676934 144.40597722 -62.082013 126.81197391 -62.10362434 109.21790314 C-62.11392662 101.04824238 -62.12796687 92.8786203 -62.15087891 84.70898438 C-62.17084492 77.58638593 -62.18372406 70.46381551 -62.18817699 63.34118986 C-62.19077894 59.5715866 -62.19687272 55.80206348 -62.21146011 52.03248596 C-62.22509483 48.48011355 -62.22921081 44.92785386 -62.22621536 41.37545776 C-62.2270228 39.45899005 -62.23775351 37.54253445 -62.24884033 35.62609863 C-62.22384059 25.12071112 -60.88755283 17.24673731 -54 9 C-39.40642852 -5.13272185 -19.41084493 0 0 0 Z " fill="#F5E4FD" transform="translate(323,156)"/>
<path d="M0 0 C43.40669014 0 43.40669014 0 54.625 10.125 C62.15679715 18.11540332 62.57471584 27.28216086 62.45410156 37.80322266 C62.45297087 39.16428595 62.45361127 40.52535168 62.45587158 41.88641357 C62.45701102 45.55121217 62.43362828 49.21547838 62.40557575 52.88015413 C62.38043224 56.72113061 62.37820996 60.56212165 62.37347412 64.40316772 C62.36108213 71.66322466 62.32831223 78.92303832 62.28807616 86.18298852 C62.24324022 94.45388712 62.22134181 102.72479783 62.20129442 110.99578786 C62.1595758 127.99733221 62.089298 144.99864031 62 162 C60.88802116 161.04828546 59.77624399 160.09633528 58.66455078 159.14428711 C58.04540802 158.6141954 57.42626526 158.0841037 56.7883606 157.53794861 C55.30728921 156.26426159 53.83593541 154.97928461 52.3671875 153.69140625 C36.18059658 139.86430272 21.39902164 136.25876598 0 135 C0 90.45 0 45.9 0 0 Z " fill="#F5E4FC" transform="translate(177,156)"/>
<path d="M0 0 C3.61941735 1.50239966 6.7321794 2.82145293 10 5 C10.36914349 7.49499702 10.36914349 7.49499702 10.36076355 10.70730591 C10.36488754 11.92169342 10.36901154 13.13608093 10.3732605 14.38726807 C10.36264239 15.7401145 10.35173795 17.09295872 10.34057617 18.44580078 C10.33973031 19.86479677 10.34020424 21.28379408 10.34190369 22.70278931 C10.34276668 26.56216621 10.32509198 30.42126507 10.30418181 34.28057718 C10.28546553 38.31113188 10.28366857 42.34169249 10.28010559 46.37228394 C10.27077023 54.00796155 10.24613638 61.64351077 10.21605712 69.27913177 C10.18255939 77.97065127 10.16603877 86.6621768 10.15097082 95.35374475 C10.11958805 113.23590271 10.0667987 131.11794104 10 149 C8.58459513 148.53341617 7.16964548 148.06545133 5.75488281 147.59692383 C4.96688293 147.33647781 4.17888306 147.0760318 3.36700439 146.80769348 C1.19784831 146.06751183 -0.94103915 145.27673209 -3.078125 144.44921875 C-20.18842521 137.97584999 -38.15487415 137.03763008 -56 141 C-57.66631016 141.33511092 -59.33287609 141.66896108 -61 142 C-58.50456708 135.53456017 -51.16529533 132.47038754 -45.19140625 129.6953125 C-39.07688612 127.2058942 -34.31343245 125.85538007 -27.66015625 126.11328125 C-25.8184082 126.1587207 -25.8184082 126.1587207 -23.93945312 126.20507812 C-21.35810561 126.27660161 -18.77722519 126.36770382 -16.19726562 126.47851562 C-14.96814453 126.50236328 -13.73902344 126.52621094 -12.47265625 126.55078125 C-11.35125244 126.58856689 -10.22984863 126.62635254 -9.07446289 126.6652832 C-5.6278637 125.91947341 -4.20838721 124.78609163 -2.04879856 122.03015041 C0.15260053 117.76892101 -0.30381514 112.99344147 -0.34057617 108.30322266 C-0.32485062 106.54626572 -0.32485062 106.54626572 -0.30880737 104.7538147 C-0.28005417 100.8902946 -0.28634984 97.02767045 -0.29296875 93.1640625 C-0.27985389 90.48216991 -0.2647942 87.80035894 -0.24714661 85.11849976 C-0.20973937 78.78628624 -0.19756062 72.45428746 -0.1945222 66.12197435 C-0.18982773 58.91026101 -0.15689207 51.69876229 -0.12162435 44.48714375 C-0.04973516 29.65814011 -0.01318033 14.82917487 0 0 Z " fill="#F5E2FD" transform="translate(344,185)"/>
<path d="M0 0 C0.00054477 0.61807085 0.00108953 1.2361417 0.00165081 1.87294197 C0.01662715 16.92162244 0.05910809 31.96995338 0.13209057 47.01844978 C0.16672349 54.2958625 0.19209383 61.57308613 0.19555664 68.85058594 C0.19859894 75.19470677 0.21912457 81.53849072 0.26052457 87.88248146 C0.28183287 91.24076213 0.2944668 94.59856415 0.28615379 97.95691299 C0.28126396 101.70894056 0.30727269 105.45956996 0.34057617 109.21142578 C0.33195053 110.32129349 0.32332489 111.43116119 0.31443787 112.57466125 C0.37874506 119.0908154 0.37874506 119.0908154 3.36471558 124.69818115 C6.52199898 127.45594589 7.77394964 127.67646852 11.90234375 127.4453125 C13.60040161 127.38537109 13.60040161 127.38537109 15.33276367 127.32421875 C16.52232666 127.25847656 17.71188965 127.19273437 18.9375 127.125 C29.1033737 126.81080794 37.48590855 127.0607089 47 131 C47 131.66 47 132.32 47 133 C47.825 133.20625 48.65 133.4125 49.5 133.625 C53.89143822 135.35020787 57.54681549 137.77469061 61 141 C61 141.66 61 142.32 61 143 C60.443125 142.86722656 59.88625 142.73445312 59.3125 142.59765625 C58.549375 142.42105469 57.78625 142.24445313 57 142.0625 C56.2575 141.88847656 55.515 141.71445312 54.75 141.53515625 C35.88190379 137.86338185 16.62109034 139.4151039 -1.1328125 146.81640625 C-4.05219083 148.02154472 -7.0002359 149.01522371 -10 150 C-10.09343459 131.57189408 -10.16397486 113.14384963 -10.20724869 94.71555805 C-10.2278754 86.15900569 -10.255998 77.60260049 -10.30175781 69.04614258 C-10.34162234 61.58846809 -10.36743202 54.13090018 -10.37635398 46.67312211 C-10.38156942 42.72410431 -10.39382955 38.77539142 -10.42292023 34.82647133 C-10.45008348 31.10904851 -10.45844331 27.39205601 -10.45243073 23.67454338 C-10.45405474 21.66084174 -10.4755728 19.64718689 -10.49768066 17.63360596 C-10.48943268 15.83108116 -10.48943268 15.83108116 -10.48101807 13.99214172 C-10.48470524 12.94959386 -10.48839241 11.90704599 -10.49219131 10.83290577 C-9.86953337 7.24907317 -8.48854429 5.60595487 -6 3 C-1.55172414 0 -1.55172414 0 0 0 Z " fill="#F5E3FD" transform="translate(156,184)"/>
<path d="M0 0 C2.73430568 1.36715284 3.26901651 3.30770561 4.37748563 6.05148196 C5.32893113 9.02957982 5.374668 11.78876801 5.3742218 14.90444946 C5.37819621 15.56279356 5.38217061 16.22113766 5.38626546 16.89943159 C5.39582287 19.08633752 5.38411064 21.27258578 5.37231445 23.45947266 C5.37474474 25.03545369 5.37846635 26.61143319 5.38337708 28.18740845 C5.39276197 32.45640846 5.38337837 36.72517818 5.37004495 40.99416018 C5.35869343 45.47505999 5.36284112 49.95594906 5.36479187 54.43685913 C5.36567422 61.96722145 5.35461128 69.49749366 5.33618164 77.02783203 C5.31506106 85.70679759 5.31149471 94.38563076 5.3177436 103.0646168 C5.32346194 111.43832227 5.31775964 119.81198158 5.30657005 128.18568039 C5.30195195 131.73637123 5.30103811 135.28703358 5.3031559 138.83772659 C5.30505579 143.03207859 5.29680583 147.22629816 5.2810955 151.42061996 C5.2768937 152.95031435 5.27597401 154.48002228 5.27878571 156.00971985 C5.30954859 175.75948888 5.30954859 175.75948888 3 183 C0.18137591 185.66353024 -1.69877263 186.41422566 -5.5625 186.375 C-6.32691406 186.38273438 -7.09132813 186.39046875 -7.87890625 186.3984375 C-10 186 -10 186 -13 183 C-9.37 183.33 -5.74 183.66 -2 184 C1.50600511 179.45395019 2.49964483 176.74762907 2.49447632 170.85153198 C2.49930515 170.1550238 2.50413398 169.45851561 2.50910914 168.74090111 C2.52033417 166.41916486 2.50309737 164.09854137 2.48583984 161.77685547 C2.48798683 160.10760196 2.4918662 158.43834991 2.49734497 156.769104 C2.50702523 152.24439385 2.49175261 147.72007926 2.47143888 143.19541693 C2.45385375 138.45939437 2.45739322 133.72338376 2.4581604 128.98733521 C2.45628843 121.03657421 2.43893667 113.08596606 2.41162109 105.13525391 C2.3801498 95.94091858 2.36962571 86.74675048 2.3710922 77.55236518 C2.37231249 68.70715951 2.36210545 59.86200831 2.34550858 51.016819 C2.33844495 47.25215352 2.33478238 43.48750732 2.33372116 39.72283554 C2.33171337 35.29213331 2.31951263 30.86157167 2.29938889 26.43091583 C2.29354361 24.80391679 2.2910872 23.17690156 2.29224396 21.54989243 C2.2932245 19.33127869 2.28192325 17.11305952 2.26742554 14.89450073 C2.26407385 13.65234236 2.26072216 12.41018398 2.25726891 11.13038445 C2.00746726 8.09085979 1.41473643 6.61728367 0 4 C0 2.68 0 1.36 0 0 Z " fill="#D3ABEF" transform="translate(370,178)"/>
<path d="M0 0 C0.20055048 17.54984443 0.38386916 35.09977235 0.54658794 52.65000629 C0.62254171 60.7985995 0.70416651 68.94706266 0.79907227 77.09545898 C0.88176287 84.19631803 0.95388411 91.29719163 1.01323253 98.39828557 C1.0450383 102.15944834 1.0821908 105.92038915 1.13199425 109.68136024 C1.18734901 113.87648323 1.21910807 118.07146249 1.2487793 122.2668457 C1.27898415 124.14419151 1.27898415 124.14419151 1.30979919 126.0594635 C1.31408936 127.19949829 1.31837952 128.33953308 1.32279968 129.51411438 C1.33293941 130.50688542 1.34307913 131.49965647 1.35352612 132.52251148 C1 135 1 135 -0.3099699 136.82895184 C-3.13449696 138.78611061 -5.96086281 138.19842198 -9.3125 138.0625 C-14.46358956 137.86260697 -18.1733408 138.21158121 -23 140 C-26.375 140.125 -26.375 140.125 -29 140 C-27 138 -27 138 -19 136 C-13.39 136 -7.78 136 -2 136 C-2 91.45 -2 46.9 -2 1 C-35.15256218 -0.05548048 -35.15256218 -0.05548048 -50 6 C-49.67 4.68 -49.34 3.36 -49 2 C-43.4010292 0.43175243 -38.32005113 -0.33258379 -32.51953125 -0.44921875 C-31.74365158 -0.47095657 -30.96777191 -0.4926944 -30.16838074 -0.51509094 C-28.54245695 -0.55867747 -26.91641216 -0.59794869 -25.2902832 -0.63305664 C-22.8083376 -0.68759146 -20.32718918 -0.75780659 -17.84570312 -0.83007812 C-16.25783589 -0.87071621 -14.66994549 -0.91046088 -13.08203125 -0.94921875 C-12.34547806 -0.96997971 -11.60892487 -0.99074066 -10.85005188 -1.01213074 C-7.06564761 -1.08645632 -3.68760768 -0.80827441 0 0 Z " fill="#BB71E8" transform="translate(325,155)"/>
<path d="M0 0 C0.99 0 1.98 0 3 0 C1.96114168 2.71701406 0.87195785 5.22879311 -0.55125046 7.77186394 C-2.14638511 11.32617857 -2.37255782 13.65038076 -2.36749268 17.525177 C-2.37306183 18.82027695 -2.37863098 20.11537689 -2.3843689 21.44972229 C-2.37534735 22.87289613 -2.36602959 24.29606812 -2.35644531 25.71923828 C-2.35723677 27.22772846 -2.3593358 28.73621843 -2.36264038 30.2447052 C-2.36776629 34.33396586 -2.35425153 38.42297403 -2.33711338 42.51219416 C-2.32203793 46.80270919 -2.32325032 51.09322146 -2.32244873 55.38375854 C-2.31875761 62.59474979 -2.30380443 69.80564578 -2.28125 77.01660156 C-2.25244747 86.243355 -2.2420316 95.4700315 -2.2375679 104.69682503 C-2.23357025 112.65718688 -2.22106665 120.61753233 -2.20722103 128.57788229 C-2.20314285 131.12167543 -2.20020655 133.665468 -2.19742584 136.20926285 C-2.19248796 140.22627923 -2.1822106 144.24325048 -2.16798782 148.26024437 C-2.16351094 149.72585707 -2.16063727 151.1914758 -2.15958023 152.65709496 C-3.23850855 169.55568161 -3.23850855 169.55568161 3.125 184.25 C3.74375 184.8275 4.3625 185.405 5 186 C1.84456749 185.74415412 0.40497117 185.44836094 -1.75 183.0625 C-5.349904 174.24273521 -4.16041561 163.61627711 -4.17700195 154.22827148 C-4.18327924 152.65521092 -4.18992712 151.0821518 -4.19691467 149.50909424 C-4.21778925 144.37977093 -4.22829439 139.25044784 -4.23828125 134.12109375 C-4.2423336 132.34751941 -4.24645066 130.57394521 -4.25063133 128.80037117 C-4.26963842 120.47259034 -4.28388446 112.14481818 -4.2922433 103.81701988 C-4.30202992 94.22817047 -4.32840532 84.639551 -4.36874419 75.05078262 C-4.39893138 67.61865277 -4.41371423 60.18658884 -4.41702431 52.75439888 C-4.41936969 48.32364871 -4.42826517 43.8931455 -4.45348549 39.46246147 C-4.47682029 35.29674346 -4.48097792 31.13143425 -4.47072411 26.96566772 C-4.47023012 25.44233398 -4.47650981 23.91897967 -4.49028015 22.39570808 C-4.56013342 14.20703239 -4.35146197 7.19175385 0 0 Z " fill="#D3ABEC" transform="translate(129,178)"/>
<path d="M0 0 C1.55910347 0.03822624 1.55910347 0.03822624 3.14970398 0.07722473 C6.43794891 0.16319343 9.72439788 0.2789114 13.01171875 0.39453125 C15.23627923 0.45432168 17.46088972 0.51228108 19.68554688 0.56835938 C23.75207458 0.68115737 27.81847775 0.79434374 31.8840332 0.93823242 C32.69548294 0.96584152 33.50693268 0.99345062 34.3429718 1.02189636 C36.85564614 1.21932205 39.23940745 1.66653398 41.69921875 2.20703125 C41.69921875 2.86703125 41.69921875 3.52703125 41.69921875 4.20703125 C40.98369339 4.1981488 40.26816803 4.18926636 39.53096008 4.18011475 C32.77788431 4.09986652 26.02494218 4.03901523 19.27149677 3.99978256 C15.79968691 3.97893413 12.32827202 3.9506683 8.85668945 3.90527344 C4.86275506 3.85337686 0.8692336 3.83406352 -3.125 3.81640625 C-4.36787277 3.79576111 -5.61074554 3.77511597 -6.89128113 3.75384521 C-8.05210709 3.75354309 -9.21293304 3.75324097 -10.40893555 3.75292969 C-11.42819626 3.74404724 -12.44745697 3.73516479 -13.49760437 3.72601318 C-17.01447417 4.32949915 -18.7147336 5.81525139 -21.30078125 8.20703125 C-21.30078125 6.88703125 -21.30078125 5.56703125 -21.30078125 4.20703125 C-13.99472387 0.66575149 -8.06397715 -0.32318388 0 0 Z " fill="#E9C1FC" transform="translate(178.30078125,132.79296875)"/>
<path d="M0 0 C1.87441521 0.00848969 1.87441521 0.00848969 3.78669739 0.01715088 C7.06995505 0.03560286 10.3523897 0.07138229 13.63537598 0.1159668 C17.00095681 0.1572723 20.36665932 0.17523624 23.73242188 0.1953125 C30.30760681 0.23918337 36.88225191 0.30594708 43.45703125 0.390625 C43.45703125 0.720625 43.45703125 1.050625 43.45703125 1.390625 C23.98703125 1.720625 4.51703125 2.050625 -15.54296875 2.390625 C-15.54296875 3.050625 -15.54296875 3.710625 -15.54296875 4.390625 C-16.08566406 4.58398438 -16.62835938 4.77734375 -17.1875 4.9765625 C-17.90292969 5.23695313 -18.61835938 5.49734375 -19.35546875 5.765625 C-20.06316406 6.02085937 -20.77085937 6.27609375 -21.5 6.5390625 C-23.79070234 7.4172019 -23.79070234 7.4172019 -26.54296875 9.390625 C-27.53296875 9.390625 -28.52296875 9.390625 -29.54296875 9.390625 C-29.76984375 9.98875 -29.99671875 10.586875 -30.23046875 11.203125 C-32.27562916 14.61172568 -35.10913048 15.96434876 -38.85546875 17.078125 C-39.41234375 17.18125 -39.96921875 17.284375 -40.54296875 17.390625 C-31.07657898 4.00710843 -15.60075687 -0.27064821 0 0 Z " fill="#BA72EB" transform="translate(293.54296875,135.609375)"/>
<path d="M0 0 C2.74290279 0.23830229 2.74290279 0.23830229 5.375 0.125 C6.24898438 0.10695313 7.12296875 0.08890625 8.0234375 0.0703125 C8.67570312 0.04710937 9.32796875 0.02390625 10 0 C9.67 0.66 9.34 1.32 9 2 C8.20416504 1.98428955 7.40833008 1.9685791 6.58837891 1.95239258 C2.93399343 1.88949575 -0.72027761 1.85083625 -4.375 1.8125 C-5.62667969 1.78736328 -6.87835938 1.76222656 -8.16796875 1.73632812 C-18.54240953 1.65485346 -26.42666998 3.37442034 -35.625 8.1875 C-36.64851563 8.71730469 -37.67203125 9.24710937 -38.7265625 9.79296875 C-39.47679687 10.19128906 -40.22703125 10.58960938 -41 11 C-41 10.34 -41 9.68 -41 9 C-38.46080994 7.70326398 -35.91885762 6.41252163 -33.375 5.125 C-32.66214844 4.76019531 -31.94929688 4.39539063 -31.21484375 4.01953125 C-25.03936124 0.90346209 -19.46528108 -1.18614391 -12.5 -1.75 C-10.87578125 -1.89695312 -10.87578125 -1.89695312 -9.21875 -2.046875 C-5.7362003 -1.99615826 -3.26848672 -1.14179136 0 0 Z " fill="#BC71ED" transform="translate(329,310)"/>
<path d="M0 0 C9.68550165 0.50976324 18.64037238 8.1795298 25 15 C25 15.66 25 16.32 25 17 C25.66 17 26.32 17 27 17 C27.33 16.01 27.66 15.02 28 14 C29.0625 15.875 29.0625 15.875 30 18 C29.67 18.66 29.34 19.32 29 20 C28.34 20 27.68 20 27 20 C27 19.34 27 18.68 27 18 C25.68 18.33 24.36 18.66 23 19 C22.773125 18.21625 22.54625 17.4325 22.3125 16.625 C20.64331808 13.28663616 19.39365605 13.29282135 16 12 C15.41476563 11.22269531 14.82953125 10.44539062 14.2265625 9.64453125 C11.64979225 6.5840515 9.35553314 5.37269484 5.75 3.6875 C4.67234375 3.17574219 3.5946875 2.66398438 2.484375 2.13671875 C1.66453125 1.76160156 0.8446875 1.38648438 0 1 C0 0.67 0 0.34 0 0 Z " fill="#BC72EC" transform="translate(224,139)"/>
<path d="M0 0 C-1.32 0.33 -2.64 0.66 -4 1 C-4 1.66 -4 2.32 -4 3 C-4.99580078 3.32871094 -4.99580078 3.32871094 -6.01171875 3.6640625 C-12.20989573 5.83234182 -12.20989573 5.83234182 -16.875 10.25 C-17.57625 11.1575 -18.2775 12.065 -19 13 C-20.32 13 -21.64 13 -23 13 C-20.46983862 6.30684054 -12.42245019 3.40942556 -6.5625 0 C-3.81372801 -1.07269151 -2.68735724 -1.13695883 0 0 Z " fill="#EFC8FD" transform="translate(306,314)"/>
<path d="M0 0 C0.81210938 -0.01224609 1.62421875 -0.02449219 2.4609375 -0.03710938 C7.85049946 -0.05006505 12.44772503 0.68192463 17.625 2.1875 C17.625 2.5175 17.625 2.8475 17.625 3.1875 C13.43751481 3.21670143 9.25005609 3.23436646 5.0625 3.25 C3.88107422 3.25837891 2.69964844 3.26675781 1.48242188 3.27539062 C-4.24363072 3.29142999 -9.73894482 3.2385705 -15.375 2.1875 C-15.375 1.8575 -15.375 1.5275 -15.375 1.1875 C-10.21431988 0.14367311 -5.24067555 0.00412003 0 0 Z M-11.375 3.1875 C-8.375 4.1875 -8.375 4.1875 -8.375 4.1875 Z " fill="#E9BEFD" transform="translate(179.375,310.8125)"/>
<path d="M0 0 C2.97 0 5.94 0 9 0 C9 0.66 9 1.32 9 2 C9.56847656 2.03738281 10.13695312 2.07476562 10.72265625 2.11328125 C16.08435193 2.56978622 20.1669508 3.63489082 25 6 C25 6.66 25 7.32 25 8 C20.02602256 7.08536365 15.1454137 5.82121582 10.25 4.5625 C9.37472656 4.34529297 8.49945313 4.12808594 7.59765625 3.90429688 C6.76621094 3.68966797 5.93476563 3.47503906 5.078125 3.25390625 C4.31918945 3.06127197 3.56025391 2.8686377 2.77832031 2.67016602 C1 2 1 2 0 0 Z " fill="#D8B0F2" transform="translate(199,343)"/>
<path d="M0 0 C1.65 0 3.3 0 5 0 C5 0.66 5 1.32 5 2 C7.31 2.33 9.62 2.66 12 3 C12 3.66 12 4.32 12 5 C12.5775 5.103125 13.155 5.20625 13.75 5.3125 C16 6 16 6 17.8125 7.5625 C20.88910062 9.58426612 23.40414351 9.20745326 27 9 C25.68 10.32 24.36 11.64 23 13 C19.97877326 11.54815191 17.15831007 9.89389322 14.3125 8.125 C9.69453549 5.3254019 4.99109232 3.04948236 0 1 C0 0.67 0 0.34 0 0 Z " fill="#BB70EF" transform="translate(228,330)"/>
<path d="M0 0 C0 0.66 0 1.32 0 2 C-2.5 3.5 -2.5 3.5 -5 5 C-7.48753652 7.36619327 -9.81173688 9.78321217 -12.0625 12.375 C-12.701875 12.91125 -13.34125 13.4475 -14 14 C-16.12109375 13.6015625 -16.12109375 13.6015625 -18 13 C-3.94444444 0 -3.94444444 0 0 0 Z " fill="#BE79EB" transform="translate(284,300)"/>
<path d="M0 0 C2.31 0.33 4.62 0.66 7 1 C7.33 1.99 7.66 2.98 8 4 C13.08303686 4.11320856 13.08303686 4.11320856 18 3 C18.33 3.66 18.66 4.32 19 5 C15.49514517 6.75242742 11.82393721 6.56359138 8 6 C5.0704107 4.6631034 2.47797205 3.05935007 0 1 C0 0.67 0 0.34 0 0 Z " fill="#D9AFF2" transform="translate(237,358)"/>
<path d="M0 0 C0.99 0.33 1.98 0.66 3 1 C2.29875 1.433125 1.5975 1.86625 0.875 2.3125 C-3.28528208 6.20145934 -5.46654 10.95049209 -8 16 C-8.33 16 -8.66 16 -9 16 C-9.20140476 12.37471432 -8.85776765 10.13498292 -7 7 C-6.34 7 -5.68 7 -5 7 C-4.731875 6.401875 -4.46375 5.80375 -4.1875 5.1875 C-3.01506533 3.02775192 -1.80630718 1.64209744 0 0 Z " fill="#B975E9" transform="translate(270,162)"/>
<path d="M0 0 C1.98 0 3.96 0 6 0 C2.11936374 2.58709084 -2.00411177 4.51181949 -6.1875 6.5625 C-9.09706984 7.98147784 -9.09706984 7.98147784 -12 10 C-11.67 8.68 -11.34 7.36 -11 6 C-9.35 5.67 -7.7 5.34 -6 5 C-5.67 4.01 -5.34 3.02 -5 2 C-3.35 2 -1.7 2 0 2 C0 1.34 0 0.68 0 0 Z " fill="#F2CDFE" transform="translate(271,137)"/>
<path d="M0 0 C0.99 0.66 1.98 1.32 3 2 C1.23084525 2.98219627 -0.54038569 3.96065359 -2.3125 4.9375 C-3.29863281 5.48277344 -4.28476562 6.02804687 -5.30078125 6.58984375 C-8 8 -8 8 -11 9 C-9.72648692 5.17946076 -8.37362475 4.76978625 -4.9375 2.8125 C-4.01839844 2.28269531 -3.09929687 1.75289063 -2.15234375 1.20703125 C-1.44207031 0.80871094 -0.73179687 0.41039062 0 0 Z " fill="#BA6CED" transform="translate(267,329)"/>
<path d="M0 0 C3.1414436 1.83250877 6.22602027 3.63698023 9 6 C9 6.66 9 7.32 9 8 C4.545 7.01 4.545 7.01 0 6 C0.66 5.01 1.32 4.02 2 3 C1.34 2.67 0.68 2.34 0 2 C0 1.34 0 0.68 0 0 Z " fill="#F5CEFE" transform="translate(208,319)"/>
<path d="M0 0 C0.66 0.33 1.32 0.66 2 1 C-2.75 4 -2.75 4 -5 4 C-5 4.66 -5 5.32 -5 6 C-7.3125 7.6875 -7.3125 7.6875 -10 9 C-10.99 8.67 -11.98 8.34 -13 8 C-11.58531689 7.03874097 -10.1681636 6.08111675 -8.75 5.125 C-7.96109375 4.59132812 -7.1721875 4.05765625 -6.359375 3.5078125 C-4.26684277 2.17053197 -2.30109848 0.93420665 0 0 Z " fill="#D6AEF2" transform="translate(146,166)"/>
<path d="M0 0 C4.00748653 0.58487641 6.85736768 1.84394575 10.3125 3.9375 C11.19550781 4.46214844 12.07851562 4.98679687 12.98828125 5.52734375 C13.65214844 6.01332031 14.31601563 6.49929688 15 7 C15 7.66 15 8.32 15 9 C11.69918209 7.38102741 8.47442567 5.64075691 5.25 3.875 C4.26515625 3.33617187 3.2803125 2.79734375 2.265625 2.2421875 C1.51796875 1.83226562 0.7703125 1.42234375 0 1 C0 0.67 0 0.34 0 0 Z " fill="#B774EA" transform="translate(207,296)"/>
<path d="M0 0 C-4.92984325 2.03993514 -8.57960425 3.40652968 -14 3 C-11.87033995 0.87033995 -10.95931796 0.52375338 -8.125 -0.1875 C-7.44695312 -0.36667969 -6.76890625 -0.54585938 -6.0703125 -0.73046875 C-3.77181444 -1.02970718 -2.19449036 -0.69377386 0 0 Z " fill="#BD76E7" transform="translate(310,292)"/>
<path d="M0 0 C1.43836751 0.11458693 2.87570966 0.24209116 4.3125 0.375 C5.51326172 0.47941406 5.51326172 0.47941406 6.73828125 0.5859375 C9 1 9 1 12 3 C12 3.66 12 4.32 12 5 C10.37276701 4.54965877 8.74826336 4.08944646 7.125 3.625 C5.76761719 3.24214844 5.76761719 3.24214844 4.3828125 2.8515625 C2 2 2 2 0 0 Z " fill="#F5CBFE" transform="translate(202,293)"/>
<path d="M0 0 C3.34373475 0.55728913 6.03312999 1.35173889 9 3 C8.67 3.66 8.34 4.32 8 5 C1.125 2.25 1.125 2.25 0 0 Z " fill="#D7AFF0" transform="translate(332,346)"/>
<path d="M0 0 C0.66 0.33 1.32 0.66 2 1 C0.02 2.98 -1.96 4.96 -4 7 C-4.99 6.67 -5.98 6.34 -7 6 C-2.25 1.125 -2.25 1.125 0 0 Z " fill="#B96BED" transform="translate(285,321)"/>
<path d="M0 0 C-2.1875 1.625 -2.1875 1.625 -5 3 C-7.8125 2.1875 -7.8125 2.1875 -10 1 C-10 0.67 -10 0.34 -10 0 C-2.25 -1.125 -2.25 -1.125 0 0 Z " fill="#F3D7FE" transform="translate(142,364)"/>
<path d="M0 0 C-1.28813342 0.83878455 -2.58063256 1.67086783 -3.875 2.5 C-4.59429687 2.9640625 -5.31359375 3.428125 -6.0546875 3.90625 C-8 5 -8 5 -10 5 C-10 4.34 -10 3.68 -10 3 C-3.375 -1.125 -3.375 -1.125 0 0 Z " fill="#D6ADF3" transform="translate(266,357)"/>
<path d="M0 0 C0.66 0.33 1.32 0.66 2 1 C-0.25 3.5625 -0.25 3.5625 -3 6 C-4.32 5.67 -5.64 5.34 -7 5 C-4.69 3.35 -2.38 1.7 0 0 Z " fill="#BA6CEE" transform="translate(273,308)"/>
<path d="M0 0 C0.66 0.33 1.32 0.66 2 1 C1.1875 2.9375 1.1875 2.9375 0 5 C-0.99 5.33 -1.98 5.66 -3 6 C-3.66 5.34 -4.32 4.68 -5 4 C-3.35 2.68 -1.7 1.36 0 0 Z " fill="#F2CDFE" transform="translate(277,159)"/>
<path d="M0 0 C2.31 0.33 4.62 0.66 7 1 C7 1.66 7 2.32 7 3 C7.66 3 8.32 3 9 3 C9 3.66 9 4.32 9 5 C5.9168649 3.80100302 2.93720508 2.52299523 0 1 C0 0.67 0 0.34 0 0 Z " fill="#DBB4F4" transform="translate(341,351)"/>
<path d="M0 0 C-2.55068845 2.35448165 -3.71017358 2.98327924 -7.25 3.1875 C-8.1575 3.125625 -9.065 3.06375 -10 3 C-7.28464405 0.28464405 -3.67870689 -1.83935344 0 0 Z " fill="#D893FE" transform="translate(279,329)"/>
<path d="M0 0 C0.8125 1.6875 0.8125 1.6875 1 4 C-1.4375 6.75 -1.4375 6.75 -4 9 C-2.94124926 5.59687262 -1.99097846 2.98646769 0 0 Z " fill="#F0C9FC" transform="translate(266,169)"/>
</svg>
