<?xml version="1.0" encoding="UTF-8"?>
<svg version="1.1" xmlns="http://www.w3.org/2000/svg" width="512" height="512">
<path d="M0 0 C1.85624401 -0.00532945 3.7124837 -0.01239743 5.56871521 -0.02104706 C10.65375577 -0.03964842 15.73850459 -0.03337796 20.82355714 -0.02289402 C26.31380377 -0.01589491 31.80399091 -0.03190541 37.29421997 -0.04489136 C48.04391871 -0.06652493 58.79351156 -0.06640603 69.54322492 -0.05826581 C78.28145279 -0.05196377 87.0196498 -0.05310474 95.75787735 -0.05953789 C97.00197033 -0.06043954 98.24606332 -0.0613412 99.52785609 -0.06227018 C102.05530198 -0.0641214 104.58274787 -0.06598396 107.11019374 -0.06785773 C124.07752453 -0.07972649 141.04484263 -0.08413854 158.01217461 -0.07292271 C159.00686111 -0.07226575 159.00686111 -0.07226575 160.02164229 -0.07159552 C165.40626691 -0.0679889 170.79089136 -0.06415403 176.17551581 -0.06030459 C197.17631372 -0.04545896 218.17698156 -0.05423522 239.17776489 -0.08226013 C262.78761286 -0.11370672 286.39740272 -0.12858413 310.0072757 -0.11846012 C312.52599024 -0.11743758 315.04470478 -0.11644297 317.56341934 -0.11547661 C319.42223614 -0.11476202 319.42223614 -0.11476202 321.31860479 -0.114033 C330.04349148 -0.11186992 338.76831752 -0.12166743 347.49319077 -0.13624763 C358.1301836 -0.15377539 368.7669997 -0.15364713 379.4039856 -0.13089598 C384.82931385 -0.11975774 390.25433078 -0.11658213 395.67964554 -0.13519669 C400.65031696 -0.15203164 405.62040623 -0.14560927 410.59104015 -0.1209799 C412.3850184 -0.11610613 414.17904388 -0.11958621 415.97298251 -0.13246734 C429.40047114 -0.22189091 440.15679586 1.63742066 450.82962036 10.57325745 C460.68281352 20.30891748 463.35638995 32.22564985 464.08297729 45.6146698 C464.17081424 47.02690142 464.25982703 48.43906031 464.34990335 49.85115087 C464.59054322 53.71193679 464.8071734 57.57372744 465.01781225 61.43625355 C465.15437039 63.9116251 465.29732809 66.38655201 465.44210052 68.86145592 C467.29226947 100.61627997 468.41246774 132.39557371 469.25717328 164.19179783 C469.39649773 169.43235351 469.54071697 174.67276396 469.6880188 179.9131012 C469.71723404 180.95558086 469.74644929 181.99806053 469.77654985 183.07213049 C470.19609868 197.64266271 470.90787172 212.17189892 471.8656902 226.71660297 C477.0549157 305.5936875 481.95898057 386.58220769 427.05737585 449.912318 C386.39007576 495.73121727 340.25644075 519.54852029 279.10381511 523.56486747 C244.07217368 525.59923118 209.01406321 523.73537 174.0468204 521.44074464 C159.48363036 520.49656745 144.93169652 519.88500282 130.34378052 519.48365784 C129.30378677 519.45495803 128.26379302 519.42625823 127.19228432 519.39668874 C123.00792913 519.28240885 118.82352292 519.17033024 114.63903306 519.06109028 C82.02545584 518.20960314 49.43257316 517.03622041 16.8626821 515.12871063 C14.42289626 514.98841342 11.98280465 514.85592514 9.5424633 514.7256813 C5.76658654 514.52270734 1.99271652 514.29730611 -1.78074691 514.05363175 C-3.77555398 513.9290202 -5.77154475 513.8238135 -7.76751733 513.71952182 C-19.80637997 512.88237032 -30.49650803 509.11980653 -39.20553589 500.5146637 C-41.57371496 497.66967005 -43.51436593 494.8064903 -45.20553589 491.5146637 C-45.6967383 490.61819038 -45.6967383 490.61819038 -46.197864 489.70360649 C-50.25828508 481.21789401 -49.76621139 472.48578577 -49.72019958 463.30912781 C-49.72552904 461.4528838 -49.73259702 459.5966441 -49.74124664 457.74041259 C-49.759848 452.65537203 -49.75357755 447.57062321 -49.74309361 442.48557067 C-49.7360945 436.99532404 -49.75210499 431.5051369 -49.76509094 426.01490784 C-49.78672452 415.2652091 -49.78660561 404.51561625 -49.7784654 393.76590289 C-49.77216335 385.02767502 -49.77330432 376.28947801 -49.77973747 367.55125046 C-49.78063913 366.30715747 -49.78154078 365.06306449 -49.78246976 363.78127172 C-49.78432098 361.25382583 -49.78618354 358.72637994 -49.78805732 356.19893406 C-49.79992608 339.23160328 -49.80433812 322.26428517 -49.79312229 305.2969532 C-49.79246534 304.3022667 -49.79246534 304.3022667 -49.79179511 303.28748552 C-49.78818849 297.9028609 -49.78435361 292.51823644 -49.78050418 287.133612 C-49.76565855 266.13281409 -49.7744348 245.13214625 -49.80245972 224.13136292 C-49.83390631 200.52151495 -49.84878372 176.91172509 -49.8386597 153.30185211 C-49.83763717 150.78313757 -49.83664256 148.26442302 -49.83567619 145.74570847 C-49.8351998 144.50649727 -49.83472341 143.26728607 -49.83423259 141.99052302 C-49.8320695 133.26563633 -49.84186701 124.54081028 -49.85644722 115.81593704 C-49.87397498 105.17894421 -49.87384672 94.54212811 -49.85109556 83.9051422 C-49.83995732 78.47981395 -49.83678171 73.05479703 -49.85539627 67.62948227 C-49.87223122 62.65881085 -49.86580886 57.68872157 -49.84117948 52.71808766 C-49.83630572 50.9241094 -49.8397858 49.13008393 -49.85266692 47.3361453 C-49.94209049 33.90865667 -48.08277893 23.15233195 -39.14694214 12.47950745 C-35.87109613 9.164114 -32.34570411 6.64166763 -28.20553589 4.5146637 C-27.60788701 4.18719542 -27.01023813 3.85972715 -26.39447868 3.52233559 C-17.90876621 -0.5380855 -9.17665796 -0.0460118 0 0 Z M72.79446411 122.5146637 C72.79446411 210.9546637 72.79446411 299.3946637 72.79446411 390.5146637 C161.23446411 390.5146637 249.67446411 390.5146637 340.79446411 390.5146637 C340.79446411 302.0746637 340.79446411 213.6346637 340.79446411 122.5146637 C252.35446411 122.5146637 163.91446411 122.5146637 72.79446411 122.5146637 Z " fill="#0084F6" transform="translate(49.205535888671875,-0.5146636962890625)"/>
<path d="M0 0 C40.26 0 80.52 0 122 0 C126.83976189 63.16785516 126.83976189 63.16785516 127.859375 90.47265625 C128.09400917 96.71279851 128.33637553 102.9525665 128.59179688 109.19189453 C128.63927165 110.36348682 128.63927165 110.36348682 128.68770552 111.55874765 C129.13569973 122.37355122 129.86827686 133.133264 130.84832028 143.91239711 C136.87341242 210.26569447 133.97010616 267.91738391 89.80818072 321.25744633 C51.12407536 367.02343845 7.46280495 396.34879308 -52.98365784 401.55207634 C-90.84719324 404.49388369 -128.92308166 402.40810199 -166.74764347 399.92603862 C-181.31083753 398.98194914 -195.86276828 398.3703391 -210.45068359 397.96899414 C-211.49067734 397.94029434 -212.53067109 397.91159453 -213.6021798 397.88202504 C-217.78653499 397.76774516 -221.97094119 397.65566655 -226.15543105 397.54642658 C-258.76900828 396.69493945 -291.36189095 395.52155671 -323.93178201 393.61404693 C-326.37156785 393.47374972 -328.81165946 393.34126144 -331.25200081 393.21101761 C-335.02787758 393.00804364 -338.80174759 392.78264242 -342.57521102 392.53896805 C-344.57001809 392.41435651 -346.56600886 392.3091498 -348.56198144 392.20485812 C-360.60084408 391.36770662 -371.29097214 387.60514283 -380 379 C-382.36817907 376.15500636 -384.30883004 373.2918266 -386 370 C-386.49336098 369.14631081 -386.49336098 369.14631081 -386.99668884 368.27537537 C-391.49831527 359.18155237 -390.50029561 349.217386 -390.390625 339.3359375 C-390.38473406 337.55900576 -390.38065939 335.78206705 -390.37841797 334.00512695 C-390.36882392 330.05424989 -390.34482492 326.10376376 -390.31164551 322.15301514 C-390.23251403 312.67217395 -390.18462645 303.19116188 -390.13306761 293.71013761 C-390.10594436 288.74992083 -390.0778127 283.78970979 -390.04974365 278.82949829 C-390.04006339 277.11212479 -390.03038754 275.39475126 -390.02071762 273.6773777 C-390.01388081 272.46384306 -390.00704399 271.25030842 -390 270 C-325.82004514 269.34498433 -261.64435885 268.90091373 -197.4609375 268.90234375 C-196.78852715 268.90233436 -196.11611679 268.90232497 -195.42333037 268.90231529 C-172.40721088 268.90199785 -149.39111579 268.92123246 -126.375 268.9375 C-84.67125 268.958125 -42.9675 268.97875 0 269 C0 180.23 0 91.46 0 0 Z " fill="#00A84A" transform="translate(390,121)"/>
<path d="M0 0 C40.26 0 80.52 0 122 0 C127.07090359 66.1846824 127.07090359 66.1846824 128.09399414 90.30444336 C128.12553225 91.04033976 128.15707037 91.77623616 128.18956418 92.53443246 C128.65966478 103.56308145 129.06547347 114.59331633 129.42287952 125.62617177 C129.49977876 127.9931901 129.57873976 130.36013425 129.65772772 132.72708368 C134.29428824 273.90507069 134.29428824 273.90507069 87.35665894 324.66592407 C79.42827717 333.00114205 70.88159063 340.56473544 62.0625 347.9375 C60.98867758 348.84031834 60.98867758 348.84031834 59.89316177 349.76137543 C10.69988961 391 10.69988961 391 1 391 C0.33927763 327.04003749 -0.10101038 263.08456196 -0.09765625 199.12109375 C-0.09762838 198.38558888 -0.09760051 197.65008402 -0.09757179 196.89229113 C-0.09664815 178.27205821 -0.08620086 159.65183522 -0.07202661 141.03160822 C-0.06392009 130.25764491 -0.05858505 119.48368251 -0.05493164 108.7097168 C-0.05466364 107.92741866 -0.05439565 107.14512053 -0.05411953 106.33911639 C-0.05203637 100.20810401 -0.05008076 94.07709158 -0.04816496 87.94607913 C-0.03897294 58.63071303 -0.01880395 29.31536457 0 0 Z " fill="#FEBB00" transform="translate(390,121)"/>
<path d="M0 0 C14.6025 -0.103125 29.205 -0.20625 44.25 -0.3125 C51.13407715 -0.38078003 51.13407715 -0.38078003 58.15722656 -0.45043945 C63.81591797 -0.47302246 63.81591797 -0.47302246 66.4755249 -0.47721863 C68.31005947 -0.48483364 70.14457099 -0.50228701 71.97894287 -0.52787781 C86.28857795 -0.71730995 97.61392595 0.4961532 109.03515625 10.05859375 C112.35054969 13.33443976 114.87299606 16.85983178 117 21 C117.32890732 21.56912613 117.65781464 22.13825226 117.99668884 22.72462463 C122.49831527 31.81844763 121.50029561 41.782614 121.390625 51.6640625 C121.38473406 53.44099424 121.38065939 55.21793295 121.37841797 56.99487305 C121.35756 63.53835547 121.30171493 70.0816887 121.25 76.625 C121.1675 91.26875 121.085 105.9125 121 121 C81.07 121 41.14 121 0 121 C0 81.07 0 41.14 0 0 Z " fill="#0066D5" transform="translate(391,0)"/>
<path d="M0 0 C39.93 0 79.86 0 121 0 C121 39.93 121 79.86 121 121 C106.3975 121.103125 91.795 121.20625 76.75 121.3125 C72.16061523 121.35802002 67.57123047 121.40354004 62.84277344 121.45043945 C57.18408203 121.47302246 57.18408203 121.47302246 54.5244751 121.47721863 C52.68994053 121.48483364 50.85542901 121.50228701 49.02105713 121.52787781 C34.71142205 121.71730995 23.38607405 120.5038468 11.96484375 110.94140625 C8.64945031 107.66556024 6.12700394 104.14016822 4 100 C3.50663902 99.14631081 3.50663902 99.14631081 3.00331116 98.27537537 C-1.49831527 89.18155237 -0.50029561 79.217386 -0.390625 69.3359375 C-0.38473406 67.55900576 -0.38065939 65.78206705 -0.37841797 64.00512695 C-0.35756 57.46164453 -0.30171493 50.9183113 -0.25 44.375 C-0.12625 22.409375 -0.12625 22.409375 0 0 Z " fill="#00802D" transform="translate(0,391)"/>
<path d="M0 0 C1.0725 0.763125 2.145 1.52625 3.25 2.3125 C12.00536716 10.86888154 16.07195559 20.99649787 16.3125 33.125 C16.33571524 43.68148755 13.17873716 52.23391162 6 60 C-1.16030534 67 -1.16030534 67 -4 67 C-4 67.66 -4 68.32 -4 69 C-3.11183594 69.25910156 -2.22367187 69.51820313 -1.30859375 69.78515625 C8.25418837 73.2964021 14.50474309 81.13719235 19 90 C23.33797515 101.80401402 23.04211044 114.02409931 18.25 125.625 C12.18986122 138.2558387 1.92157844 146.86655114 -11 152 C-26.88550636 157.31522624 -43.98644622 156.3461839 -59.1875 149.375 C-72.03626045 142.50989712 -80.75324227 131.89684526 -86.25 118.6015625 C-87 116 -87 116 -86 113 C-83.89868164 111.83325195 -83.89868164 111.83325195 -81.16015625 110.73828125 C-80.17982422 110.34189453 -79.19949219 109.94550781 -78.18945312 109.53710938 C-77.15755859 109.13298828 -76.12566406 108.72886719 -75.0625 108.3125 C-74.03447266 107.89677734 -73.00644531 107.48105469 -71.94726562 107.05273438 C-64.31292334 104 -64.31292334 104 -62 104 C-61.75765625 104.65226562 -61.5153125 105.30453125 -61.265625 105.9765625 C-57.67525819 115.33913442 -53.77797135 122.16169829 -44.4375 126.75 C-35.59129909 129.96680033 -27.6782849 129.61255678 -19 126 C-12.49151623 122.31595258 -8.87954994 118.01213318 -6.25 111 C-5.29634651 103.37077204 -6.70462227 97.79620164 -10.625 91.3125 C-18.66144697 83.48753848 -28.63367176 81.74965819 -39.4375 81.375 C-44.1709375 81.189375 -44.1709375 81.189375 -49 81 C-49 73.08 -49 65.16 -49 57 C-44.8853125 56.87625 -44.8853125 56.87625 -40.6875 56.75 C-31.07912025 56.27710242 -22.67670228 55.38242161 -15.875 47.9375 C-11.21137724 42.12470703 -11.47570165 36.19718642 -12 29 C-14.05162754 22.95309778 -17.59480185 20.432884 -22.9375 17.25 C-29.41891758 14.65743297 -38.55259251 14.68368943 -45.0625 17.1875 C-50.55426025 20.57603292 -53.67730031 24.76295786 -56.88671875 30.23046875 C-58 32 -58 32 -60 34 C-63.6531054 32.58051016 -67.29599544 31.13646388 -70.9375 29.6875 C-72.49887695 29.08131836 -72.49887695 29.08131836 -74.09179688 28.46289062 C-75.57583008 27.86831055 -75.57583008 27.86831055 -77.08984375 27.26171875 C-78.00628662 26.90037842 -78.92272949 26.53903809 -79.86694336 26.16674805 C-82 25 -82 25 -83 22 C-79.29031018 10.38056926 -69.35961397 0.59018803 -58.8515625 -5.1796875 C-40.5632194 -13.97092611 -16.37448391 -11.98285987 0 0 Z " fill="#0085F7" transform="translate(242,186)"/>
<path d="M0 0 C39.93 0 79.86 0 121 0 C117.35649185 4.25075951 113.88270463 8.24250414 109.95732117 12.16966248 C109.48737521 12.64116842 109.01742926 13.11267436 108.53324252 13.59846836 C106.98113466 15.154518 105.42553374 16.70702445 103.86987305 18.25952148 C102.74726546 19.38348604 101.62487029 20.5076628 100.50267029 21.6320343 C97.47232573 24.66691491 94.43885439 27.69865163 91.4046514 30.7296741 C88.22723562 33.9045502 85.05226927 37.0818743 81.87690735 40.25880432 C76.55181478 45.5857123 71.22462538 50.91051651 65.89624023 56.23413086 C59.72875858 62.39615432 53.56491028 68.56179463 47.40290421 74.72929329 C42.11038086 80.02634572 36.81592252 85.32145817 31.51982337 90.61493546 C28.35706847 93.7761286 25.19499974 96.93800013 22.03467369 100.10162163 C19.06973634 103.06943527 16.10238719 106.03481568 13.13311195 108.99828911 C12.04095126 110.08912162 10.9496516 111.18081696 9.85925293 112.2734108 C8.37771081 113.7576617 6.89316187 115.23883579 5.40776062 116.71922302 C4.57580012 117.55080649 3.74383963 118.38238997 2.88666821 119.23917294 C1 121 1 121 0 121 C0 81.07 0 41.14 0 0 Z " fill="#FE4130" transform="translate(391,391)"/>
<path d="M0 0 C0 51.81 0 103.62 0 157 C-8.58 157 -17.16 157 -26 157 C-26 117.07 -26 77.14 -26 36 C-38.01585439 44.47767226 -38.01585439 44.47767226 -50 53 C-50.99 53 -51.98 53 -53 53 C-54.22680664 51.59472656 -54.22680664 51.59472656 -55.41015625 49.640625 C-55.84263672 48.93679687 -56.27511719 48.23296875 -56.72070312 47.5078125 C-57.16349609 46.76273438 -57.60628906 46.01765625 -58.0625 45.25 C-58.50916016 44.52039063 -58.95582031 43.79078125 -59.41601562 43.0390625 C-61.41736274 39.74835722 -63.30953356 36.46273741 -65 33 C-57.96753461 27.50953699 -50.9151523 22.0577946 -43.57226562 16.98535156 C-40.17651416 14.62606178 -36.96758925 12.159948 -33.81640625 9.48046875 C-33.0793042 8.88274658 -32.34220215 8.28502441 -31.58276367 7.66918945 C-30.17187071 6.52259514 -28.78906147 5.33994814 -27.4465332 4.11401367 C-18.69178714 -2.81860977 -12.54430937 0 0 0 Z " fill="#0085F6" transform="translate(346,180)"/>
</svg>
