<?xml version="1.0" encoding="UTF-8"?>
<svg version="1.1" xmlns="http://www.w3.org/2000/svg" width="512" height="512">
<path d="M0 0 C1.0637233 -0.0071553 2.12744659 -0.01431061 3.22340393 -0.02168274 C4.9665387 -0.02571609 4.9665387 -0.02571609 6.74488831 -0.02983093 C7.97304764 -0.03640213 9.20120697 -0.04297333 10.46658325 -0.04974365 C14.5379511 -0.06947939 18.60927952 -0.08114785 22.68067932 -0.09111023 C24.08701662 -0.09516033 25.49335372 -0.09927732 26.89969063 -0.10346031 C33.51356501 -0.12250981 40.12742831 -0.13673689 46.74132484 -0.14507228 C54.3487048 -0.15482024 61.9557919 -0.18107638 69.56306881 -0.22157317 C75.45884761 -0.25186907 81.35454317 -0.26655415 87.25039822 -0.26985329 C90.76365712 -0.27219003 94.27660314 -0.28096733 97.78977776 -0.30631447 C101.7215211 -0.33422203 105.65288907 -0.32972315 109.58473206 -0.32279968 C110.72860382 -0.33560974 111.87247559 -0.3484198 113.05101013 -0.36161804 C127.84889027 -0.26727077 140.92229054 5.01604982 151.76124573 15.09590149 C158.45917139 22.0145112 162.97547385 30.82920019 167.55958557 39.20967102 C168.79646738 41.44482101 170.0347511 43.67919579 171.27442932 45.91279602 C172.16944153 47.52638 172.16944153 47.52638 173.08253479 49.17256165 C175.20690301 52.96888056 177.39714784 56.72166159 179.62208557 60.45967102 C183.97580307 67.78754798 188.21322251 75.18003409 192.43458557 82.58467102 C197.70457706 91.82645287 202.98972021 101.05895338 208.30958557 110.27217102 C208.92479065 111.33766174 209.53999573 112.40315247 210.17384338 113.50093079 C212.03113124 116.71660996 213.88899308 119.93195673 215.74708557 123.14717102 C225.45400765 139.94387768 235.11576295 156.76562023 244.73097229 173.61494446 C246.73644372 177.12897781 248.74347088 180.64212071 250.75099182 184.15498352 C251.08083572 184.73217133 251.41067963 185.30935913 251.7505188 185.90403748 C253.41433916 188.81541187 255.07833851 191.7266839 256.7424469 194.63789368 C259.7636981 199.9237093 262.78382362 205.21015222 265.79838562 210.49978638 C267.48887632 213.46600497 269.18024492 216.43172222 270.87208557 219.39717102 C271.37092255 220.27159348 271.37092255 220.27159348 271.87983704 221.16368103 C276.49496905 229.24963597 281.1637775 237.30261779 285.87208557 245.33467102 C290.73866592 253.64719615 295.52860846 261.99963671 300.24708557 270.39717102 C300.81056702 271.39643616 301.37404846 272.39570129 301.9546051 273.42524719 C303.5744627 276.32102664 305.16921708 279.22831008 306.74708557 282.14717102 C307.29751526 283.16488586 307.84794495 284.18260071 308.41505432 285.2311554 C315.19652395 298.21118382 317.6251106 313.734678 313.43458557 328.08467102 C307.34116201 343.43500284 297.74357381 357.68767442 289.41114807 371.88545227 C286.32437435 377.14913563 283.27282 382.43226754 280.23243713 387.72285461 C274.62916611 397.47195793 268.9929983 407.20152815 263.28291321 416.88847351 C262.28221661 418.58752319 261.28533274 420.28881669 260.28858948 421.9901886 C250.11382872 439.19715579 240.08090213 452.12420562 219.97306764 457.72648656 C215.05400895 458.65613086 210.01534586 458.42361494 205.0274353 458.40786743 C203.10168554 458.41360575 203.10168554 458.41360575 201.13703173 458.41946 C197.58448789 458.42972854 194.03204511 458.42756109 190.47949302 458.4232794 C186.64362051 458.42081002 182.80777219 458.42982912 178.97190857 458.43731689 C171.46036185 458.45006116 163.94885089 458.45185783 156.43729518 458.44951663 C150.32915107 458.44773259 144.2210178 458.44948498 138.11287498 458.45374107 C136.80813646 458.45463386 136.80813646 458.45463386 135.47703957 458.45554468 C133.70986408 458.45675645 131.9426886 458.45797059 130.17551311 458.45918705 C113.60451096 458.47006208 97.03352916 458.4679006 80.46252587 458.46180221 C65.31674722 458.45663617 50.17103295 458.46788028 35.02526704 458.48690043 C19.46245062 458.50629394 3.89966462 458.51453197 -11.66316396 458.51077718 C-20.39592914 458.50886703 -29.12863958 458.51133423 -37.86139488 458.52549171 C-45.29795048 458.53742597 -52.73441765 458.53878772 -60.17097452 458.52670155 C-63.96184108 458.52082645 -67.75254606 458.51967516 -71.54340172 458.53170395 C-75.66184353 458.5446197 -79.77990338 458.53406543 -83.89834595 458.52139282 C-85.08426573 458.52876711 -86.2701855 458.53614139 -87.49204224 458.54373914 C-103.16636646 458.44259918 -117.4857135 453.79065011 -128.91307068 442.76045227 C-133.4584138 437.68393382 -136.85322223 432.01563141 -140.25291443 426.14717102 C-140.8175238 425.1728009 -141.38213318 424.19843079 -141.96385193 423.1945343 C-145.71506906 416.69508367 -149.42769257 410.17432462 -153.12841797 403.64605713 C-156.6600221 397.42033961 -160.23419005 391.21946375 -163.81541443 385.02217102 C-164.42546326 383.96489807 -165.03551208 382.90762512 -165.66404724 381.8183136 C-168.83747626 376.3200757 -172.01914583 370.82675302 -175.20994568 365.33857727 C-186.4913069 345.91297754 -186.4913069 345.91297754 -191.56541443 336.52217102 C-191.92039001 335.87820374 -192.2753656 335.23423645 -192.64109802 334.570755 C-198.83292594 322.90177935 -199.64242866 306.70763663 -195.94041443 294.08467102 C-190.54594274 280.70333136 -182.38275405 268.24232726 -175.03416443 255.86201477 C-171.64063132 250.13168478 -168.32507618 244.35656742 -165.00291443 238.58467102 C-160.11151742 230.09057672 -155.19912937 221.60946303 -150.25291443 213.14717102 C-145.39183862 204.82968092 -140.56143233 196.49515468 -135.75291443 188.14717102 C-130.37377363 178.80853896 -124.96031996 169.49076785 -119.52244568 160.18623352 C-115.24069321 152.85433379 -110.99080504 145.50449864 -106.75291443 138.14717102 C-101.94439599 129.79918643 -97.1138576 121.46473918 -92.25291443 113.14717102 C-87.41615001 104.86940004 -82.60429468 96.57773969 -77.81541443 88.27217102 C-77.19207214 87.19121155 -76.56872986 86.11025208 -75.92649841 84.99653625 C-72.79174627 79.55813965 -69.66090907 74.11751893 -66.53416443 68.67451477 C-63.4346345 63.2813734 -60.32202398 57.8959498 -57.2016449 52.5148468 C-55.85787099 50.19261963 -54.51789748 47.86857226 -53.18309021 45.54121399 C-51.43278852 42.49039706 -49.67009755 39.44702738 -47.89961243 36.40788269 C-46.91502051 34.71111664 -45.94224757 33.00750914 -44.96995544 31.30366516 C-35.89470678 15.79580993 -24.77697267 5.80407557 -7.41252041 0.59508991 C-4.89490358 0.07291682 -2.57205042 0.01190413 0 0 Z M58.74708557 148.14717102 C57.82735126 149.56604596 56.96082949 151.01939423 56.11427307 152.48310852 C55.56327942 153.43169739 55.01228577 154.38028625 54.44459534 155.35762024 C53.542453 156.92407288 53.542453 156.92407288 52.62208557 158.52217102 C51.99680969 159.60127747 51.37153381 160.68038391 50.72731018 161.79219055 C49.06207884 164.66814108 47.40017876 167.54595759 45.74031067 170.42500305 C44.16503257 173.15640148 42.58666673 175.8860149 41.00880432 178.61592102 C37.24984826 185.12343053 33.49788768 191.63495922 29.74708557 198.14717102 C21.87045968 211.82271416 13.97588465 225.4867806 6.01417542 239.11299133 C1.75725793 246.40339563 -2.47350656 253.70855698 -6.69041443 261.02217102 C-7.30578064 262.08935364 -7.92114685 263.15653625 -8.55516052 264.25605774 C-11.48154642 269.33318854 -14.40550046 274.41170833 -17.32598877 279.49223328 C-18.34940698 281.27218442 -19.37344456 283.05177771 -20.39768982 284.83125305 C-21.6807007 287.06066439 -22.96251531 289.29076478 -24.24290466 291.52168274 C-26.8146851 295.98900138 -29.40229078 300.42317094 -32.18260193 304.76435852 C-34.42691698 307.77047499 -34.42691698 307.77047499 -34.25291443 310.14717102 C-2.74617469 310.78100607 28.75314384 311.24778288 60.26661682 311.24482727 C60.95282529 311.24476291 61.63903377 311.24469855 62.34603643 311.24463224 C70.65032041 311.24301913 78.95458375 311.23284317 87.2588557 311.21919763 C94.43532954 311.2076288 101.61180488 311.2024272 108.78828585 311.19749463 C123.44122862 311.18729416 138.09415675 311.16994296 152.74708557 311.14717102 C151.48322243 308.76596027 150.21806181 306.38545397 148.9521637 304.00532532 C148.59809448 303.33791069 148.24402527 302.67049606 147.87922668 301.98285675 C144.81276521 296.22134231 141.57038231 290.57683247 138.24708557 284.95967102 C133.04124706 276.09761254 127.89840824 267.20182115 122.80958557 258.27217102 C117.64685674 249.21609667 112.46342754 240.17252148 107.24708557 231.14717102 C101.71702954 221.57745963 96.22088378 211.9888725 90.74388123 202.38874817 C85.79181986 193.70969407 80.81061439 185.04811117 75.80958557 176.39717102 C70.38793159 167.01768849 65.02173855 157.61009858 59.74708557 148.14717102 C59.41708557 148.14717102 59.08708557 148.14717102 58.74708557 148.14717102 Z " fill="#00AC3C" transform="translate(197.25291442871094,26.852828979492188)"/>
<path d="M0 0 C3.72211066 1.41897293 6.37369324 2.85624965 9.375 5.5 C10.08398438 6.1084375 10.79296875 6.716875 11.5234375 7.34375 C18.32066273 14.6341493 23.05753626 23.36968505 27.8125 32.0625 C29.04938181 34.29764999 30.28766553 36.53202477 31.52734375 38.765625 C32.12401855 39.84134766 32.72069336 40.91707031 33.33544922 42.02539062 C35.45981744 45.82170954 37.65006227 49.57449057 39.875 53.3125 C44.2287175 60.64037696 48.46613694 68.03286307 52.6875 75.4375 C57.95749149 84.67928185 63.24263464 93.91178236 68.5625 103.125 C69.17770508 104.19049072 69.79291016 105.25598145 70.42675781 106.35375977 C72.28404567 109.56943894 74.1419075 112.78478571 76 116 C85.70692207 132.79670666 95.36867738 149.61844921 104.98388672 166.46777344 C106.98935814 169.98180679 108.99638531 173.49494969 111.00390625 177.0078125 C111.33375015 177.58500031 111.66359406 178.16218811 112.00343323 178.75686646 C113.66725359 181.66824085 115.33125294 184.57951288 116.99536133 187.49072266 C120.01661253 192.77653828 123.03673805 198.0629812 126.05130005 203.35261536 C127.74179075 206.31883394 129.43315935 209.2845512 131.125 212.25 C131.62383698 213.12442245 131.62383698 213.12442245 132.13275146 214.01651001 C136.74788348 222.10246495 141.41669193 230.15544677 146.125 238.1875 C150.99158035 246.50002513 155.78152289 254.85246569 160.5 263.25 C161.06348145 264.24926514 161.62696289 265.24853027 162.20751953 266.27807617 C163.82737713 269.17385562 165.42213151 272.08113906 167 275 C167.55042969 276.01771484 168.10085938 277.03542969 168.66796875 278.08398438 C175.44943837 291.0640128 177.87802503 306.58750698 173.6875 320.9375 C167.59407644 336.28783182 157.99648824 350.5405034 149.6640625 364.73828125 C146.57728878 370.00196461 143.52573443 375.28509652 140.48535156 380.57568359 C134.88208053 390.32478691 129.24591273 400.05435713 123.53582764 409.74130249 C122.53513104 411.44035217 121.53824717 413.14164567 120.54150391 414.84301758 C109.88211214 432.86956472 109.88211214 432.86956472 102.8125 439.0625 C101.99394531 439.79597656 101.17539062 440.52945312 100.33203125 441.28515625 C98.11325191 442.91672096 96.69015887 443.59802224 94 444 C87.64907849 433.31335324 81.43736607 422.55040046 75.27978516 411.75134277 C70.37725369 403.15352535 65.45277094 394.56902785 60.5 386 C55.33158683 377.05451266 50.18613519 368.09619579 45.0625 359.125 C44.56882935 358.26091019 44.56882935 358.26091019 44.06518555 357.37936401 C40.63501665 351.37520326 37.20858373 345.368948 33.79112244 339.35754395 C32.37005842 336.8585182 30.94730477 334.36045642 29.52438354 331.86248779 C28.54071546 330.13404286 27.5594892 328.40420895 26.57836914 326.67431641 C21.30300403 317.41455121 15.90634021 308.22278875 9.90625 299.41015625 C6.43851532 294.27047807 3.48618879 288.86654585 0.5 283.4375 C-4.25920024 274.85887488 -9.09580253 266.33521018 -14.0625 257.875 C-18.61194574 250.12158559 -23.09483482 242.33631054 -27.5 234.5 C-31.92836007 226.62361926 -36.43140017 218.79586683 -41 211 C-46.11576723 202.27044576 -51.13266277 193.49120281 -56.09008789 184.67089844 C-60.68993553 176.50492406 -65.40194204 168.40699904 -70.15625 160.33007812 C-71.24244004 158.4799601 -72.32191885 156.62588256 -73.39404297 154.76757812 C-74.51153164 152.84178737 -75.65309985 150.92985201 -76.81298828 149.02929688 C-77.38130371 148.06572266 -77.94961914 147.10214844 -78.53515625 146.109375 C-79.05601807 145.24795898 -79.57687988 144.38654297 -80.11352539 143.49902344 C-81 141 -81 141 -80.33837891 138.50952148 C-78.94364786 135.89433717 -77.54197754 133.30010359 -76.05078125 130.73828125 C-75.45773193 129.71524902 -74.86468262 128.6922168 -74.25366211 127.63818359 C-73.61307861 126.54070801 -72.97249512 125.44323242 -72.3125 124.3125 C-71.63840526 123.15205754 -70.96466475 121.99140926 -70.29125977 120.83056641 C-68.89179069 118.41865875 -67.49080029 116.00764414 -66.08886719 113.59716797 C-63.4786543 109.10606194 -60.88740337 104.60407467 -58.2956543 100.10229492 C-52.32198664 89.72706004 -46.3100198 79.37488223 -40.26928711 69.03857422 C-35.98755048 61.70687461 -31.73788887 54.35711942 -27.5 47 C-22.49971593 38.32129364 -17.48232474 29.65290068 -12.4375 21 C-11.87804687 20.03964844 -11.31859375 19.07929687 -10.7421875 18.08984375 C-7.20656707 12.0324314 -3.62254651 6.00582222 0 0 Z " fill="#FEB900" transform="translate(337,34)"/>
<path d="M0 0 C13.70474605 0.01815121 27.40725738 -0.02059622 41.11146379 -0.13002467 C53.00023076 -0.2246912 64.88847249 -0.27346834 76.7776165 -0.28174782 C83.84364129 -0.28844757 90.90802693 -0.32181761 97.97357178 -0.40730286 C104.32720652 -0.48406292 110.6791642 -0.51517843 117.03324711 -0.49152726 C120.34408137 -0.48074832 123.65049757 -0.49860808 126.96090317 -0.55903053 C146.65029165 -0.89987375 146.65029165 -0.89987375 151.26402664 2.25281715 C154.50426021 5.67950782 155.91606447 9.56255722 157.43157959 14.00065613 C158.51177903 15.98607499 159.62384908 17.9548888 160.78314209 19.89518738 C161.87646653 21.86663699 162.96755452 23.8393283 164.05657959 25.81315613 C168.77647359 34.30679174 173.57627032 42.74505543 178.49407959 51.12565613 C183.59711281 59.82294419 188.59825549 68.57092259 193.53948975 77.36100769 C197.41483798 84.2398387 201.3737239 91.06593388 205.36907959 97.87565613 C211.00311887 107.48051753 216.48817631 117.16217551 221.90203857 126.89274597 C222.72683716 128.37508728 222.72683716 128.37508728 223.56829834 129.88737488 C224.05000488 130.75580017 224.53171143 131.62422546 225.02801514 132.51896667 C226.0166276 134.26696558 227.04853936 135.99082407 228.11053467 137.69523621 C229.43157959 140.00065613 229.43157959 140.00065613 229.43157959 142.00065613 C227.51642169 142.81670611 225.59939125 143.62836245 223.68157959 144.43815613 C222.61423584 144.89061707 221.54689209 145.343078 220.44720459 145.80924988 C216.14182549 147.51020924 212.68864687 148.12599479 208.05343628 148.13208389 C206.95560287 148.13592504 205.85776945 148.13976618 204.72666836 148.14372373 C203.52085645 148.14285724 202.31504454 148.14199076 201.07269287 148.14109802 C199.79142297 148.14406914 198.51015306 148.14704027 197.1900568 148.15010142 C193.6307618 148.15816987 190.07148697 148.15996091 186.5121839 148.16069889 C182.67421919 148.16254979 178.83626494 148.17009746 174.99830627 148.17683411 C166.60337849 148.19041829 158.20845547 148.19644268 149.81351852 148.20084476 C144.56967823 148.20360784 139.32583978 148.2078454 134.08200073 148.21234894 C119.55870174 148.22454323 105.03540422 148.23484124 90.51210022 148.23822403 C89.5824619 148.2384436 88.65282359 148.23866316 87.69501442 148.23888938 C86.76316371 148.23910766 85.83131301 148.23932594 84.8712244 148.23955083 C82.98297691 148.23999429 81.09472942 148.24044086 79.20648193 148.2408905 C78.26984801 148.24111193 77.33321409 148.24133336 76.36819732 148.2415615 C61.20283184 148.24550664 46.03751449 148.26295128 30.87216759 148.28625003 C15.29589016 148.30998648 -0.28036314 148.32242698 -15.85665894 148.32359195 C-24.5995343 148.32450758 -33.34234701 148.33023144 -42.08520508 148.34841156 C-49.53280671 148.36384374 -56.98032632 148.36891478 -64.42794091 148.36067346 C-68.22486676 148.35677755 -72.0216276 148.35764432 -75.81853294 148.3717308 C-79.94369483 148.38689441 -84.06848798 148.37857164 -88.19366455 148.3681488 C-89.97561376 148.38023341 -89.97561376 148.38023341 -91.79356194 148.39256215 C-107.47391152 148.30019468 -121.7968674 143.64833605 -133.22857666 132.61393738 C-137.77391979 127.53741893 -141.16872821 121.86911652 -144.56842041 116.00065613 C-145.41533447 114.53910095 -145.41533447 114.53910095 -146.27935791 113.04801941 C-150.03057504 106.54856878 -153.74319855 100.02780973 -157.44392395 93.49954224 C-160.97552808 87.27382472 -164.54969604 81.07294886 -168.13092041 74.87565613 C-168.74096924 73.81838318 -169.35101807 72.76111023 -169.97955322 71.67179871 C-173.15298224 66.1735608 -176.33465181 60.68023812 -179.52545166 55.19206238 C-190.80681288 35.76646265 -190.80681288 35.76646265 -195.88092041 26.37565613 C-196.41338379 25.4097052 -196.41338379 25.4097052 -196.956604 24.42424011 C-200.24546203 18.22613436 -201.68742967 12.72880714 -201.61651611 5.74040222 C-201.6095723 4.84985138 -201.60262848 3.95930054 -201.59547424 3.04176331 C-201.58654648 2.36819794 -201.57761871 1.69463257 -201.56842041 1.00065613 C-181.51704392 0.867787 -161.46565289 0.73734553 -141.4142437 0.6095047 C-132.09599969 0.55004304 -122.77776129 0.48988578 -113.45953369 0.42790222 C-75.63938224 0.17669402 -37.82116526 -0.05772494 0 0 Z " fill="#0083FE" transform="translate(201.56842041015625,336.9993438720703)"/>
<path d="M0 0 C53.13 0 106.26 0 161 0 C161 23.09033457 147.04406657 41.34767702 135.6640625 60.73828125 C132.57728878 66.00196461 129.52573443 71.28509652 126.48535156 76.57568359 C120.88208053 86.32478691 115.24591273 96.05435713 109.53582764 105.74130249 C108.53513104 107.44035217 107.53824717 109.14164567 106.54150391 110.84301758 C95.88211214 128.86956472 95.88211214 128.86956472 88.8125 135.0625 C87.99394531 135.79597656 87.17539062 136.52945313 86.33203125 137.28515625 C84.11325191 138.91672096 82.69015887 139.59802224 80 140 C73.64907849 129.31335324 67.43736607 118.55040046 61.27978516 107.75134277 C56.37725369 99.15352535 51.45277094 90.56902785 46.5 82 C41.33158831 73.05451522 36.18568058 64.09645392 31.0625 55.125 C30.73371857 54.54927246 30.40493713 53.97354492 30.06619263 53.38037109 C27.71002227 49.25402168 25.35494503 45.1270488 23 41 C20.49043617 36.60216517 17.98038678 32.20460835 15.4694519 27.80755615 C14.47600265 26.06744083 13.48322697 24.32694101 12.49047852 22.58642578 C8.79698124 16.11786128 5.06222714 9.6767618 1.26977539 3.265625 C0 1 0 1 0 0 Z " fill="#FE4131" transform="translate(351,338)"/>
<path d="M0 0 C53.13 0 106.26 0 161 0 C157.20145705 7.5970859 153.42804728 14.88917237 149.0625 22.125 C147.91544149 24.04614401 146.76966163 25.96805191 145.625 27.890625 C145.03203125 28.88642578 144.4390625 29.88222656 143.828125 30.90820312 C140.69602714 36.20533017 137.63004432 41.54031328 134.5625 46.875 C129.73456937 55.26553362 124.88530681 63.6427369 120 72 C115.1388843 80.31746705 110.30856269 88.65204224 105.5 97 C100.43959527 105.78428595 95.3583902 114.55602381 90.25 123.3125 C89.66541016 124.31474609 89.08082031 125.31699219 88.47851562 126.34960938 C86.00794821 130.58027334 83.5264798 134.80240764 81 139 C74.25299411 138.17456843 70.46717241 133.81806813 66 129 C62.60384838 124.56083552 59.79686457 119.827875 57 115 C56.15308594 113.53844482 56.15308594 113.53844482 55.2890625 112.04736328 C51.53784537 105.54791265 47.82522186 99.0271536 44.12449646 92.49888611 C40.59289233 86.27316859 37.01872437 80.07229273 33.4375 73.875 C32.82745117 72.81772705 32.21740234 71.7604541 31.58886719 70.67114258 C28.41543817 65.17290468 25.2337686 59.679582 22.04296875 54.19140625 C10.76160753 34.76580652 10.76160753 34.76580652 5.6875 25.375 C5.15503662 24.40904907 5.15503662 24.40904907 4.61181641 23.42358398 C0.32873752 15.3517926 0 9.40212241 0 0 Z " fill="#0066DD" transform="translate(0,338)"/>
<path d="M0 0 C1.0637233 -0.0071553 2.12744659 -0.01431061 3.22340393 -0.02168274 C4.9665387 -0.02571609 4.9665387 -0.02571609 6.74488831 -0.02983093 C8.5871273 -0.03968773 8.5871273 -0.03968773 10.46658325 -0.04974365 C14.5379511 -0.06947939 18.60927952 -0.08114785 22.68067932 -0.09111023 C24.08701662 -0.09516033 25.49335372 -0.09927732 26.89969063 -0.10346031 C33.51356501 -0.12250981 40.12742831 -0.13673689 46.74132484 -0.14507228 C54.3487048 -0.15482024 61.9557919 -0.18107638 69.56306881 -0.22157317 C75.45884761 -0.25186907 81.35454317 -0.26655415 87.25039822 -0.26985329 C90.76365712 -0.27219003 94.27660314 -0.28096733 97.78977776 -0.30631447 C101.7215211 -0.33422203 105.65288907 -0.32972315 109.58473206 -0.32279968 C110.72860382 -0.33560974 111.87247559 -0.3484198 113.05101013 -0.36161804 C122.50934468 -0.30131427 131.352658 1.67047738 139.74708557 6.14717102 C139.06573701 9.81220639 137.49498733 12.60332245 135.64161682 15.81904602 C134.99507141 16.94584778 134.348526 18.07264954 133.68238831 19.2335968 C132.97493012 20.4548709 132.26732547 21.67606016 131.55958557 22.89717102 C130.83014692 24.1637319 130.10106609 25.43049892 129.37232971 26.69746399 C124.27247616 35.55325523 119.12914825 44.38401293 113.9690094 53.20478821 C109.69986115 60.50262206 105.46656356 67.82051919 101.24708557 75.14717102 C95.87473677 84.4741943 90.46930828 93.78109183 85.03639221 103.07295227 C81.91176741 108.42160858 78.80166645 113.77828531 75.71192932 119.14717102 C75.37464813 119.73304993 75.03736694 120.31892883 74.68986511 120.92256165 C73.0602855 123.75400582 71.43265329 126.58654512 69.80763245 129.42060852 C66.56006284 135.06917427 63.24311553 140.64868912 59.74708557 146.14717102 C56.57267743 143.22087853 54.49363527 140.30371613 52.38380432 136.54560852 C51.7521637 135.4292804 51.12052307 134.31295227 50.46974182 133.16279602 C49.79133913 131.94926401 49.11295419 130.73572208 48.43458557 129.52217102 C47.72180317 128.25872154 47.00824909 126.99570713 46.29396057 125.73310852 C45.19319657 123.78717273 44.09290282 121.8409883 42.99497986 119.89344788 C39.45707383 113.61875249 35.85669658 107.38086 32.24708557 101.14717102 C27.05388272 92.16222526 21.8904216 83.16071394 16.74708557 74.14717102 C11.58032028 65.09349715 6.39574896 56.05039382 1.18458557 47.02217102 C0.58057922 45.97480774 -0.02342712 44.92744446 -0.64573669 43.8483429 C-3.56946443 38.78174188 -6.49980805 33.71915843 -9.44586182 28.66551208 C-10.85657228 26.24452725 -12.26411386 23.82170775 -13.67134094 21.3986969 C-14.6720412 19.67874989 -15.67740137 17.96151682 -16.68284607 16.24433899 C-17.28217957 15.21196106 -17.88151306 14.17958313 -18.49900818 13.11592102 C-19.03195496 12.20262024 -19.56490173 11.28931946 -20.11399841 10.3483429 C-21.25291443 8.14717102 -21.25291443 8.14717102 -21.25291443 6.14717102 C-19.33775653 5.33112103 -17.42072609 4.5194647 -15.50291443 3.70967102 C-14.43557068 3.25721008 -13.36822693 2.80474915 -12.26853943 2.33857727 C-8.01490001 0.65805911 -4.57756632 0.02118619 0 0 Z " fill="#00831D" transform="translate(197.25291442871094,26.852828979492188)"/>
</svg>
