<svg version="1.1" id="Layer_1" xmlns="http://www.w3.org/2000/svg" xmlns:xlink="http://www.w3.org/1999/xlink" x="0px" y="0px"
	 width="100%" viewBox="0 0 512 512" enable-background="new 0 0 512 512" xml:space="preserve">
<path fill="#FEFFFF" opacity="1.000000" stroke="none" 
	d="
M284.000000,513.000000 
	C189.356308,513.000000 95.212616,513.000000 1.034460,513.000000 
	C1.034460,342.397949 1.034460,171.795883 1.034460,1.096914 
	C171.560379,1.096914 342.120819,1.096914 512.840637,1.096914 
	C512.840637,171.666550 512.840637,342.333252 512.840637,513.000000 
	C436.795868,513.000000 360.647919,513.000000 284.000000,513.000000 
M136.707672,423.696503 
	C136.762863,424.148682 136.818039,424.600861 136.673676,425.966766 
	C136.661530,432.774902 136.526154,439.585602 136.668884,446.390472 
	C136.841629,454.625488 140.377625,461.026276 148.107193,465.755981 
	C152.249954,466.784332 156.391281,468.704132 160.535675,468.710693 
	C265.134888,468.876373 369.734467,468.857727 474.333893,468.762817 
	C477.554108,468.759888 480.773254,467.598114 484.665131,466.903748 
	C486.173828,465.985382 487.682526,465.067047 489.830292,463.941803 
	C494.046692,460.582550 497.190765,456.549988 498.275391,450.250244 
	C498.482574,447.943085 498.869568,445.635986 498.870697,443.328735 
	C498.899841,384.073456 498.893829,324.818146 498.864014,265.562866 
	C498.862946,263.422577 498.558441,261.282379 498.632477,258.355682 
	C499.164764,254.108002 497.437836,250.813843 493.886200,248.745834 
	C486.337585,244.350510 478.647614,240.197952 470.653595,235.424301 
	C470.081360,235.150986 469.509094,234.877686 468.968872,234.242722 
	C468.968872,234.242722 468.688171,234.012466 468.647217,233.074844 
	C468.589569,216.122223 468.531952,199.169617 468.750916,181.290924 
	C468.796143,163.551941 468.889282,145.812912 468.870209,128.073990 
	C468.856842,115.647446 468.690216,103.221062 468.678711,89.888802 
	C468.684601,83.393501 468.701355,76.898178 468.694275,70.402893 
	C468.676788,54.363178 460.382751,45.993591 444.491425,45.992973 
	C359.885040,45.989697 275.278625,45.991173 190.672241,45.993473 
	C189.173569,45.993511 187.669327,45.946434 186.177109,46.053066 
	C175.904266,46.787128 167.257523,55.306477 166.921646,65.563400 
	C166.644073,74.039841 166.963821,82.535835 166.839340,91.941017 
	C166.905472,101.630981 166.971588,111.320946 166.855698,121.924500 
	C166.437897,126.903465 166.020081,131.882431 165.308029,136.722626 
	C165.308029,136.722626 165.031891,136.894623 164.114746,136.654938 
	C121.889915,136.639435 79.665077,136.621033 37.440243,136.623840 
	C36.290722,136.623917 35.141216,136.852280 33.202152,136.861084 
	C22.826458,138.610413 16.214315,146.019806 15.937136,156.943466 
	C15.926984,223.292923 15.915943,289.642365 15.915147,355.991821 
	C15.915134,356.984222 16.042208,357.976654 15.970197,359.759247 
	C17.554888,371.049377 25.231180,377.973907 36.566292,378.004608 
	C69.826218,378.094757 103.086418,378.083984 136.407532,379.008667 
	C136.544708,383.696320 136.681900,388.383972 136.622604,393.722870 
	C136.689285,394.167847 136.755966,394.612793 136.595856,395.948120 
	C136.670380,399.618988 136.744888,403.289886 136.651093,407.649902 
	C136.721115,408.114777 136.791138,408.579651 136.624222,409.939941 
	C136.703537,413.946594 136.782867,417.953217 136.732773,422.503235 
	C136.788208,422.681000 136.843628,422.858795 136.707672,423.696503 
z"/>
<path fill="#0078D4" opacity="1.000000" stroke="none" 
	d="
M16.103218,156.021729 
	C16.214315,146.019806 22.826458,138.610413 33.887726,137.219757 
	C35.548897,137.718719 36.524441,137.981216 37.500111,137.981705 
	C78.635536,138.002380 119.770988,138.010391 160.906342,137.953369 
	C162.282013,137.951462 163.656723,137.263046 165.031891,136.894623 
	C165.031891,136.894623 165.308029,136.722626 165.950302,136.830582 
	C191.441559,136.941345 216.290543,136.944153 241.458954,137.099182 
	C251.879669,140.258347 256.998901,147.126022 257.059509,157.668488 
	C257.106262,165.799896 257.207703,173.931015 257.218750,182.522034 
	C257.131256,204.403229 257.077728,225.824707 257.104706,247.246063 
	C257.115173,255.539795 257.308014,263.833282 257.326904,272.577515 
	C257.215088,281.813599 257.137207,290.599457 257.187714,299.384521 
	C257.251495,310.474823 257.419952,321.564453 257.392822,333.123108 
	C257.174988,335.726532 257.121246,337.861816 257.037750,339.995911 
	C256.711182,348.341888 256.375183,356.687561 255.897064,365.344971 
	C251.716888,374.246918 244.939285,378.083557 235.473526,378.059357 
	C202.431458,377.974884 169.388885,378.079803 136.346512,378.112732 
	C103.086418,378.083984 69.826218,378.094757 36.566292,378.004608 
	C25.231180,377.973907 17.554888,371.049377 16.314743,359.056091 
	C16.772705,357.371216 16.985155,356.389496 16.985392,355.407715 
	C17.001091,290.356049 17.005314,225.304413 16.962317,160.252792 
	C16.961384,158.842255 16.402060,157.432068 16.103218,156.021729 
M85.208847,202.710663 
	C62.673576,228.623779 58.820751,272.601654 76.991112,301.741180 
	C91.586555,325.147644 113.879639,333.633179 140.471008,332.807526 
	C168.857071,331.926117 191.948120,315.197083 201.827408,288.706757 
	C207.244141,274.182251 208.396469,259.144745 206.711227,243.953415 
	C205.206436,230.389099 200.595947,217.820984 192.317154,206.712677 
	C167.566071,173.502121 111.265808,174.655167 85.208847,202.710663 
z"/>
<path fill="#28A8EA" opacity="1.000000" stroke="none" 
	d="
M489.191223,464.148682 
	C487.682526,465.067047 486.173828,465.985382 484.062317,466.679810 
	C475.026245,466.653076 466.593048,467.017426 458.159668,467.021606 
	C372.873505,467.063995 287.586975,467.183228 202.301514,466.938934 
	C184.082901,466.886749 165.751556,468.895599 147.633545,465.194183 
	C140.377625,461.026276 136.841629,454.625488 136.668884,446.390472 
	C136.526154,439.585602 136.661530,432.774902 137.029953,425.360352 
	C137.589554,424.221222 137.792862,423.688477 138.463318,423.115387 
	C141.760712,423.059509 144.590958,423.030823 147.421204,423.030396 
	C182.719101,423.024811 218.017044,423.046448 253.314896,423.004486 
	C262.049927,422.994110 270.182465,416.078461 271.327942,407.964722 
	C271.786530,407.624573 271.969666,407.360657 272.453369,407.030090 
	C282.362366,404.154480 286.859985,398.138733 287.037231,388.510651 
	C287.275055,375.587219 287.712860,362.667511 288.408844,349.847809 
	C290.182983,350.748810 291.594116,351.584625 293.046448,352.341370 
	C299.987488,355.957977 306.939697,359.553192 313.972961,363.487610 
	C314.817047,364.430359 315.508636,365.160370 316.345093,365.635162 
	C334.269653,375.809021 352.239746,385.902954 370.142090,396.115601 
	C409.842346,418.763214 449.510193,441.467529 489.191223,464.148682 
z"/>
<path fill="#0364B8" opacity="1.000000" stroke="none" 
	d="
M167.018890,91.023170 
	C166.963821,82.535835 166.644073,74.039841 166.921646,65.563400 
	C167.257523,55.306477 175.904266,46.787128 186.177109,46.053066 
	C187.669327,45.946434 189.173569,45.993511 190.672241,45.993473 
	C275.278625,45.991173 359.885040,45.989697 444.491425,45.992973 
	C460.382751,45.993591 468.676788,54.363178 468.694275,70.402893 
	C468.701355,76.898178 468.684601,83.393501 468.458374,90.355133 
	C468.238037,90.821457 467.953217,91.034851 467.706207,91.082527 
	C467.301117,91.187325 467.143036,91.244438 466.522430,91.233398 
	C436.755615,91.203125 407.451355,91.240997 377.674530,91.206528 
	C342.188629,91.137848 307.175262,91.141518 271.684845,91.102997 
	C236.478149,91.048256 201.748520,91.035713 167.018890,91.023170 
z"/>
<path fill="#0078D4" opacity="1.000000" stroke="none" 
	d="
M166.929108,91.482094 
	C201.748520,91.035713 236.478149,91.048256 271.643982,91.554764 
	C272.067871,102.024025 272.055573,111.999306 271.611816,121.979271 
	C265.569427,121.658409 259.959351,121.069565 254.347397,121.051483 
	C225.244431,120.957741 196.140991,121.009712 167.037720,121.010910 
	C166.971588,111.320946 166.905472,101.630981 166.929108,91.482094 
z"/>
<path fill="#158BD5" opacity="1.000000" stroke="none" 
	d="
M498.395325,259.142151 
	C498.558441,261.282379 498.862946,263.422577 498.864014,265.562866 
	C498.893829,324.818146 498.899841,384.073456 498.870697,443.328735 
	C498.869568,445.635986 498.482574,447.943085 497.756439,450.588470 
	C493.285034,448.831451 489.273407,446.839874 485.389679,444.624176 
	C460.185181,430.244965 435.029968,415.779297 409.815948,401.416870 
	C389.353455,389.760956 368.790436,378.280945 348.364655,366.561432 
	C343.394043,363.709534 338.787323,360.223389 334.318634,356.869354 
	C338.979370,354.439392 343.334747,352.168976 348.094238,349.932678 
	C349.754578,350.358337 351.131134,350.538452 352.248444,351.174164 
	C363.211609,357.411804 374.112579,363.758667 385.067383,370.011139 
	C418.368622,389.017822 451.680969,408.005005 485.003998,426.973450 
	C488.669128,429.059692 492.431519,430.975098 496.575500,433.198730 
	C496.790710,431.554565 496.986359,430.758667 496.986023,429.962830 
	C496.961456,374.501434 496.921265,319.040009 496.949829,263.283813 
	C497.476654,261.706757 497.935974,260.424438 498.395325,259.142151 
z"/>
<path fill="#117BBE" opacity="1.000000" stroke="none" 
	d="
M334.013275,357.028870 
	C338.787323,360.223389 343.394043,363.709534 348.364655,366.561432 
	C368.790436,378.280945 389.353455,389.760956 409.815948,401.416870 
	C435.029968,415.779297 460.185181,430.244965 485.389679,444.624176 
	C489.273407,446.839874 493.285034,448.831451 497.591492,450.971924 
	C497.190765,456.549988 494.046692,460.582550 489.510773,464.045258 
	C449.510193,441.467529 409.842346,418.763214 370.142090,396.115601 
	C352.239746,385.902954 334.269653,375.809021 316.345093,365.635162 
	C315.508636,365.160370 314.817047,364.430359 314.424744,363.421753 
	C322.036011,363.710144 328.145508,360.756989 334.013275,357.028870 
z"/>
<path fill="#1D79A7" opacity="1.000000" stroke="none" 
	d="
M272.087524,407.051453 
	C271.969666,407.360657 271.786530,407.624573 270.847229,407.934082 
	C226.108765,408.019653 182.061172,408.014282 137.877731,407.770447 
	C137.434372,407.341583 137.126892,407.151154 136.819397,406.960754 
	C136.744888,403.289886 136.670380,399.618988 136.973358,395.358459 
	C137.567413,394.232300 137.783966,393.695801 138.466995,393.113831 
	C174.267715,393.010620 209.601974,392.952850 245.402283,392.934082 
	C256.323059,393.913361 265.277740,391.654388 270.572906,381.473145 
	C270.740875,381.150269 271.450439,381.109070 271.950684,381.410522 
	C272.025055,390.273499 272.056305,398.662476 272.087524,407.051453 
z"/>
<path fill="#2086BB" opacity="1.000000" stroke="none" 
	d="
M138.013580,408.008911 
	C182.061172,408.014282 226.108765,408.019653 270.637085,408.055634 
	C270.182465,416.078461 262.049927,422.994110 253.314896,423.004486 
	C218.017044,423.046448 182.719101,423.024811 147.421204,423.030396 
	C144.590958,423.030823 141.760712,423.059509 138.457550,423.067017 
	C137.984650,423.058990 137.984070,422.961548 137.856781,422.736023 
	C137.440399,422.326965 137.151291,422.143402 136.862183,421.959869 
	C136.782867,417.953217 136.703537,413.946594 136.984772,409.380188 
	C137.568069,408.549896 137.790817,408.279388 138.013580,408.008911 
z"/>
<path fill="#124E6B" opacity="1.000000" stroke="none" 
	d="
M244.936218,392.895111 
	C209.601974,392.952850 174.267715,393.010620 138.173065,393.071533 
	C137.214828,393.073669 137.016953,393.072632 136.819092,393.071625 
	C136.681900,388.383972 136.544708,383.696320 136.377014,378.560699 
	C169.388885,378.079803 202.431458,377.974884 235.473526,378.059357 
	C244.939285,378.083557 251.716888,374.246918 256.193176,365.630859 
	C258.253082,376.342529 256.455170,385.625610 245.836670,391.229492 
	C245.372742,391.474365 245.229065,392.326080 244.936218,392.895111 
z"/>
<path fill="#006CBE" opacity="1.000000" stroke="none" 
	d="
M166.946716,121.467705 
	C196.140991,121.009712 225.244431,120.957741 254.347397,121.051483 
	C259.959351,121.069565 265.569427,121.658409 271.665131,122.210922 
	C272.149872,122.437889 272.242493,122.903847 272.167969,123.377548 
	C272.033508,132.606857 271.973572,141.362473 271.656738,149.892853 
	C266.299286,137.234390 253.421082,134.431549 241.139526,136.946976 
	C216.290543,136.944153 191.441559,136.941345 166.097427,136.899963 
	C166.020081,131.882431 166.437897,126.903465 166.946716,121.467705 
z"/>
<path fill="#0B2868" opacity="1.000000" stroke="none" 
	d="
M498.513916,258.748901 
	C497.935974,260.424438 497.476654,261.706757 496.659698,263.493835 
	C487.215271,269.304321 478.128448,274.610016 469.007599,279.474762 
	C468.892242,276.660858 468.810883,274.287903 468.792389,271.455353 
	C468.654388,268.429657 468.453552,265.863586 468.367767,263.220093 
	C468.482819,263.142700 468.758759,263.170349 469.095795,262.881287 
	C469.622681,258.471832 469.766968,254.348648 470.014404,250.231689 
	C470.300751,245.466904 470.677887,240.707565 471.015594,235.945862 
	C478.647614,240.197952 486.337585,244.350510 493.886200,248.745834 
	C497.437836,250.813843 499.164764,254.108002 498.513916,258.748901 
z"/>
<path fill="#46B4ED" opacity="1.000000" stroke="none" 
	d="
M147.870361,465.475098 
	C165.751556,468.895599 184.082901,466.886749 202.301514,466.938934 
	C287.586975,467.183228 372.873505,467.063995 458.159668,467.021606 
	C466.593048,467.017426 475.026245,466.653076 483.726227,466.716248 
	C480.773254,467.598114 477.554108,468.759888 474.333893,468.762817 
	C369.734467,468.857727 265.134888,468.876373 160.535675,468.710693 
	C156.391281,468.704132 152.249954,466.784332 147.870361,465.475098 
z"/>
<path fill="#0069CF" opacity="1.000000" stroke="none" 
	d="
M16.020176,156.482605 
	C16.402060,157.432068 16.961384,158.842255 16.962317,160.252792 
	C17.005314,225.304413 17.001091,290.356049 16.985392,355.407715 
	C16.985155,356.389496 16.772705,357.371216 16.384630,358.661011 
	C16.042208,357.976654 15.915134,356.984222 15.915147,355.991821 
	C15.915943,289.642365 15.926984,223.292923 16.020176,156.482605 
z"/>
<path fill="#6DD4F8" opacity="1.000000" stroke="none" 
	d="
M467.953217,91.034851 
	C467.953217,91.034851 468.238037,90.821457 468.415039,90.808029 
	C468.690216,103.221062 468.856842,115.647446 468.870209,128.073990 
	C468.889282,145.812912 468.796143,163.551941 468.359619,181.689240 
	C467.639069,181.975922 467.309845,181.864288 467.002350,181.310272 
	C467.027863,153.496628 467.010529,126.125305 467.074188,98.754166 
	C467.079498,96.478134 467.632263,94.203384 467.947876,91.705032 
	C467.965057,91.482025 467.953217,91.034851 467.953217,91.034851 
z"/>
<path fill="#006BD0" opacity="1.000000" stroke="none" 
	d="
M164.573318,136.774780 
	C163.656723,137.263046 162.282013,137.951462 160.906342,137.953369 
	C119.770988,138.010391 78.635536,138.002380 37.500111,137.981705 
	C36.524441,137.981216 35.548897,137.718719 34.282501,137.276306 
	C35.141216,136.852280 36.290722,136.623917 37.440243,136.623840 
	C79.665077,136.621033 121.889915,136.639435 164.573318,136.774780 
z"/>
<path fill="#119FE8" opacity="1.000000" stroke="none" 
	d="
M466.980621,181.752640 
	C467.309845,181.864288 467.639069,181.975922 468.221313,182.152283 
	C468.531952,199.169617 468.589569,216.122223 468.501709,233.515747 
	C468.356232,233.956665 468.020386,233.966995 467.712952,233.686249 
	C467.270721,231.929352 467.021149,230.453384 467.018890,228.977051 
	C466.995148,213.327255 467.010773,197.677383 467.005127,181.959045 
	C466.994659,181.890533 466.980621,181.752640 466.980621,181.752640 
z"/>
<path fill="#2BB6F8" opacity="1.000000" stroke="none" 
	d="
M468.020386,233.966995 
	C468.020386,233.966995 468.356232,233.956665 468.522217,233.984558 
	C468.688171,234.012466 468.968872,234.242722 468.843506,234.909912 
	C468.731659,244.774857 468.745239,253.972595 468.758789,263.170349 
	C468.758759,263.170349 468.482819,263.142700 468.263702,263.199860 
	C468.044586,263.257019 467.827148,263.256317 467.629211,262.968201 
	C467.287903,257.875244 466.956390,253.066620 467.054321,248.266754 
	C467.151672,243.495590 467.680664,238.733215 468.020386,233.966995 
z"/>
<path fill="#081A59" opacity="1.000000" stroke="none" 
	d="
M469.095825,262.881287 
	C468.745239,253.972595 468.731659,244.774857 468.827484,235.090744 
	C469.509094,234.877686 470.081360,235.150986 470.834595,235.685089 
	C470.677887,240.707565 470.300751,245.466904 470.014404,250.231689 
	C469.766968,254.348648 469.622681,258.471832 469.095825,262.881287 
z"/>
<path fill="#0973AA" opacity="1.000000" stroke="none" 
	d="
M136.720856,393.397247 
	C137.016953,393.072632 137.214828,393.073669 137.706604,393.117004 
	C137.783966,393.695801 137.567413,394.232300 137.086746,394.913269 
	C136.755966,394.612793 136.689285,394.167847 136.720856,393.397247 
z"/>
<path fill="#0973AA" opacity="1.000000" stroke="none" 
	d="
M137.877716,407.770447 
	C137.790817,408.279388 137.568069,408.549896 137.103241,408.932465 
	C136.791138,408.579651 136.721115,408.114777 136.735245,407.305328 
	C137.126892,407.151154 137.434372,407.341583 137.877716,407.770447 
z"/>
<path fill="#14A0E8" opacity="1.000000" stroke="none" 
	d="
M137.990417,423.107361 
	C137.792862,423.688477 137.589554,424.221222 137.129730,424.903503 
	C136.818039,424.600861 136.762863,424.148682 137.074738,423.349121 
	C137.622559,422.988312 137.803314,422.974945 137.984070,422.961548 
	C137.984070,422.961548 137.984650,423.058990 137.990417,423.107361 
z"/>
<path fill="#0973AA" opacity="1.000000" stroke="none" 
	d="
M137.856781,422.736023 
	C137.803314,422.974945 137.622559,422.988312 137.170441,423.019135 
	C136.843628,422.858795 136.788208,422.681000 136.797485,422.231567 
	C137.151291,422.143402 137.440399,422.326965 137.856781,422.736023 
z"/>
<path fill="#FDFEFF" opacity="1.000000" stroke="none" 
	d="
M85.453629,202.456406 
	C111.265808,174.655167 167.566071,173.502121 192.317154,206.712677 
	C200.595947,217.820984 205.206436,230.389099 206.711227,243.953415 
	C208.396469,259.144745 207.244141,274.182251 201.827408,288.706757 
	C191.948120,315.197083 168.857071,331.926117 140.471008,332.807526 
	C113.879639,333.633179 91.586555,325.147644 76.991112,301.741180 
	C58.820751,272.601654 62.673576,228.623779 85.453629,202.456406 
M129.241150,207.286392 
	C115.862961,210.161209 106.358475,218.043137 101.192680,230.507767 
	C93.787682,248.375443 93.825882,266.589325 101.153755,284.496063 
	C107.606697,300.264771 121.446732,308.488525 139.334885,307.921173 
	C154.912994,307.427063 167.703339,297.644409 173.371796,282.160980 
	C177.362457,271.260529 178.073181,260.000916 176.873932,248.667648 
	C173.976929,221.290222 158.785172,203.491180 129.241150,207.286392 
z"/>
<path fill="#023969" opacity="1.000000" stroke="none" 
	d="
M257.417786,272.126892 
	C257.308014,263.833282 257.115173,255.539795 257.104706,247.246063 
	C257.077728,225.824707 257.131256,204.403229 257.657837,182.500427 
	C262.835449,181.967117 267.507874,181.915222 272.226807,181.838028 
	C272.273315,181.812729 272.379181,181.833389 272.281708,182.309296 
	C272.140198,212.511200 272.096161,242.237183 271.582520,271.976501 
	C266.739532,272.040405 262.366150,272.090973 257.848846,272.144287 
	C257.704926,272.147034 257.417786,272.126892 257.417786,272.126892 
z"/>
<path fill="#176186" opacity="1.000000" stroke="none" 
	d="
M245.402283,392.934082 
	C245.229065,392.326080 245.372742,391.474365 245.836670,391.229492 
	C256.455170,385.625610 258.253082,376.342529 256.338806,365.319183 
	C256.375183,356.687561 256.711182,348.341888 257.037750,339.995911 
	C257.121246,337.861816 257.174988,335.726532 257.709229,333.221130 
	C262.786560,335.251923 267.397064,337.653381 272.015564,340.318726 
	C272.030243,340.758728 272.036896,340.934875 272.058838,341.572510 
	C272.018585,355.001526 271.963074,367.969055 271.907532,380.936554 
	C271.450439,381.109070 270.740875,381.150269 270.572906,381.473145 
	C265.277740,391.654388 256.323059,393.913361 245.402283,392.934082 
z"/>
<path fill="#00467C" opacity="1.000000" stroke="none" 
	d="
M272.180267,181.863312 
	C267.507874,181.915222 262.835449,181.967117 257.723938,182.040649 
	C257.207703,173.931015 257.106262,165.799896 257.059509,157.668488 
	C256.998901,147.126022 251.879669,140.258347 241.458954,137.099182 
	C253.421082,134.431549 266.299286,137.234390 271.683655,150.280014 
	C271.968323,151.933960 271.969116,152.975525 271.807983,154.108337 
	C271.767029,154.467285 271.888031,154.734955 272.058167,155.330887 
	C272.080444,156.099777 272.053680,156.540405 271.724915,157.273987 
	C271.625305,165.051849 271.827728,172.536789 272.082733,180.326233 
	C272.150299,181.041595 272.165283,181.452454 272.180267,181.863312 
z"/>
<path fill="#042146" opacity="1.000000" stroke="none" 
	d="
M272.007568,340.054840 
	C267.397064,337.653381 262.786560,335.251923 257.859680,332.752441 
	C257.419952,321.564453 257.251495,310.474823 257.187714,299.384521 
	C257.137207,290.599457 257.215088,281.813599 257.326904,272.577515 
	C257.417786,272.126892 257.704926,272.147034 258.031006,272.505219 
	C258.570984,274.644135 258.960907,276.423920 258.970062,278.205719 
	C259.027100,289.286682 258.934357,300.368927 259.070282,311.448517 
	C259.090027,313.055847 259.586487,315.405243 260.692993,316.113586 
	C264.263947,318.399536 268.222809,320.079407 272.067993,322.303406 
	C272.199127,323.017883 272.294434,323.421936 272.287964,324.293304 
	C272.126648,329.858704 272.067108,334.956787 272.007568,340.054840 
z"/>
<path fill="#074690" opacity="1.000000" stroke="none" 
	d="
M334.318634,356.869354 
	C328.145508,360.756989 322.036011,363.710144 314.339722,363.090149 
	C306.939697,359.553192 299.987488,355.957977 293.046448,352.341370 
	C291.594116,351.584625 290.182983,350.748810 288.397125,349.661499 
	C288.041412,349.373566 287.997559,349.000427 287.988556,348.578491 
	C288.024506,343.093384 288.069458,338.030212 288.473724,332.976105 
	C296.669708,337.281036 304.537445,341.521515 312.328094,345.899292 
	C315.553253,347.711578 318.545074,348.621765 322.091583,346.493561 
	C329.918732,341.796600 337.844818,337.259705 345.807312,332.794373 
	C356.500610,326.797699 367.266357,320.930176 378.001160,315.472290 
	C378.329437,320.952026 378.657562,325.966675 378.776123,331.248169 
	C377.566925,332.083984 376.556458,332.634918 375.569305,333.224792 
	C366.273987,338.778900 356.982635,344.339691 347.690125,349.898560 
	C343.334747,352.168976 338.979370,354.439392 334.318634,356.869354 
z"/>
<path fill="#2496D1" opacity="1.000000" stroke="none" 
	d="
M287.997559,349.000427 
	C287.997559,349.000427 288.041412,349.373566 288.053131,349.559875 
	C287.712860,362.667511 287.275055,375.587219 287.037231,388.510651 
	C286.859985,398.138733 282.362366,404.154480 272.453369,407.030090 
	C272.056305,398.662476 272.025055,390.273499 271.950684,381.410522 
	C271.963074,367.969055 272.018585,355.001526 272.414307,341.560120 
	C277.835541,343.724274 282.916565,346.362335 287.997559,349.000427 
z"/>
<path fill="#28A8EA" opacity="1.000000" stroke="none" 
	d="
M272.242493,122.903847 
	C272.242493,122.903847 272.149872,122.437889 272.096558,122.206238 
	C272.055573,111.999306 272.067871,102.024025 272.121033,91.596962 
	C307.175262,91.141518 342.188629,91.137848 377.627014,91.648232 
	C378.080963,122.059013 378.109833,151.955750 378.087158,181.907135 
	C378.035583,181.961792 377.932465,182.067017 377.472046,182.034882 
	C347.352539,181.975540 317.693390,181.948318 288.020630,181.457550 
	C287.672363,166.793884 287.472137,152.588806 286.950745,138.395523 
	C286.656219,130.377396 280.176575,123.836105 272.242493,122.903847 
z"/>
<path fill="#50D9FF" opacity="1.000000" stroke="none" 
	d="
M378.138702,181.852509 
	C378.109833,151.955750 378.080963,122.059013 378.099548,91.720581 
	C407.451355,91.240997 436.755615,91.203125 466.642395,91.387794 
	C467.423096,91.798500 467.658356,91.904404 467.930664,91.928040 
	C467.632263,94.203384 467.079498,96.478134 467.074188,98.754166 
	C467.010529,126.125305 467.027863,153.496628 467.002350,181.310272 
	C466.980621,181.752640 466.994659,181.890533 466.535034,181.943756 
	C436.763153,181.948807 407.450928,181.900650 378.138702,181.852509 
z"/>
<path fill="#3DBCEE" opacity="1.000000" stroke="none" 
	d="
M467.947876,91.705032 
	C467.658356,91.904404 467.423096,91.798500 467.104919,91.455948 
	C467.143036,91.244438 467.301117,91.187325 467.706207,91.082527 
	C467.953217,91.034851 467.965057,91.482025 467.947876,91.705032 
z"/>
<path fill="#1490DF" opacity="1.000000" stroke="none" 
	d="
M348.094238,349.932678 
	C356.982635,344.339691 366.273987,338.778900 375.569305,333.224792 
	C376.556458,332.634918 377.566925,332.083984 379.107971,331.139648 
	C409.446777,313.814789 439.244202,296.865265 469.041626,279.915710 
	C478.128448,274.610016 487.215271,269.304321 496.592224,263.788635 
	C496.921265,319.040009 496.961456,374.501434 496.986023,429.962830 
	C496.986359,430.758667 496.790710,431.554565 496.575500,433.198730 
	C492.431519,430.975098 488.669128,429.059692 485.003998,426.973450 
	C451.680969,408.005005 418.368622,389.017822 385.067383,370.011139 
	C374.112579,363.758667 363.211609,357.411804 352.248444,351.174164 
	C351.131134,350.538452 349.754578,350.358337 348.094238,349.932678 
z"/>
<path fill="#2397D4" opacity="1.000000" stroke="none" 
	d="
M272.167969,123.377548 
	C280.176575,123.836105 286.656219,130.377396 286.950745,138.395523 
	C287.472137,152.588806 287.672363,166.793884 287.761536,181.487671 
	C287.342987,181.994522 287.169891,182.007736 286.531677,182.008194 
	C281.504150,181.941406 276.941650,181.887405 272.379181,181.833389 
	C272.379181,181.833389 272.273315,181.812729 272.226807,181.838013 
	C272.165283,181.452454 272.150299,181.041595 272.116150,179.856171 
	C272.073608,171.714752 272.050232,164.347885 272.026886,156.981033 
	C272.053680,156.540405 272.080444,156.099777 272.076416,155.083374 
	C272.045624,154.507599 271.969940,154.017075 271.969910,154.017075 
	C271.969116,152.975525 271.968323,151.933960 271.940613,150.505249 
	C271.973572,141.362473 272.033508,132.606857 272.167969,123.377548 
z"/>
<path fill="#054F9D" opacity="1.000000" stroke="none" 
	d="
M469.007599,279.474762 
	C439.244202,296.865265 409.446777,313.814789 379.317505,330.872833 
	C378.657562,325.966675 378.329437,320.952026 378.003571,315.229248 
	C378.005798,314.521149 378.000732,314.035248 378.356628,313.990601 
	C394.002960,305.277222 409.322296,296.658997 424.572693,287.920502 
	C433.481934,282.815491 442.281097,277.518402 451.468567,272.247528 
	C452.484161,272.079895 453.160889,271.972412 454.311707,271.908752 
	C459.433685,271.940002 464.081635,271.927490 468.729553,271.914948 
	C468.810883,274.287903 468.892242,276.660858 469.007599,279.474762 
z"/>
<path fill="#1A69A9" opacity="1.000000" stroke="none" 
	d="
M468.792389,271.455353 
	C464.081635,271.927490 459.433685,271.940002 454.513306,271.633850 
	C458.769592,268.628876 463.298370,265.942596 467.827148,263.256348 
	C467.827148,263.256317 468.044586,263.257019 468.148651,263.277252 
	C468.453552,265.863586 468.654388,268.429657 468.792389,271.455353 
z"/>
<path fill="#28A8EA" opacity="1.000000" stroke="none" 
	d="
M467.629211,262.968201 
	C463.298370,265.942596 458.769592,268.628876 454.039246,271.590027 
	C453.160889,271.972412 452.484161,272.079895 450.994690,272.156372 
	C426.113373,272.092651 402.044830,272.059906 377.987518,272.012970 
	C377.998779,271.998779 377.970856,272.024536 377.981293,271.553589 
	C377.971985,241.410751 377.952209,211.738876 377.932465,182.067017 
	C377.932465,182.067017 378.035583,181.961792 378.087158,181.907150 
	C407.450928,181.900650 436.763153,181.948807 466.545471,182.012253 
	C467.010773,197.677383 466.995148,213.327255 467.018890,228.977051 
	C467.021149,230.453384 467.270721,231.929352 467.712952,233.686249 
	C467.680664,238.733215 467.151672,243.495590 467.054321,248.266754 
	C466.956390,253.066620 467.287903,257.875244 467.629211,262.968201 
z"/>
<path fill="#0178D4" opacity="1.000000" stroke="none" 
	d="
M129.676865,207.207642 
	C158.785172,203.491180 173.976929,221.290222 176.873932,248.667648 
	C178.073181,260.000916 177.362457,271.260529 173.371796,282.160980 
	C167.703339,297.644409 154.912994,307.427063 139.334885,307.921173 
	C121.446732,308.488525 107.606697,300.264771 101.153755,284.496063 
	C93.825882,266.589325 93.787682,248.375443 101.192680,230.507767 
	C106.358475,218.043137 115.862961,210.161209 129.676865,207.207642 
z"/>
<path fill="#016BBC" opacity="1.000000" stroke="none" 
	d="
M272.281708,182.309296 
	C276.941650,181.887405 281.504150,181.941406 286.535797,182.474518 
	C287.004761,212.634125 287.004578,242.314621 286.594208,272.050629 
	C281.543182,272.035645 276.902283,271.965179 272.206848,271.905029 
	C272.152313,271.915314 272.052124,271.963165 272.052124,271.963165 
	C272.096161,242.237183 272.140198,212.511200 272.281708,182.309296 
z"/>
<path fill="#032A51" opacity="1.000000" stroke="none" 
	d="
M272.032135,321.992920 
	C268.222809,320.079407 264.263947,318.399536 260.692993,316.113586 
	C259.586487,315.405243 259.090027,313.055847 259.070282,311.448517 
	C258.934357,300.368927 259.027100,289.286682 258.970062,278.205719 
	C258.960907,276.423920 258.570984,274.644135 258.174927,272.502472 
	C262.366150,272.090973 266.739532,272.040405 271.582520,271.976501 
	C272.052124,271.963165 272.152313,271.915314 272.125519,272.179810 
	C272.062683,272.631104 272.026672,272.817963 271.823822,273.097900 
	C271.781860,273.465759 271.906708,273.740570 272.061279,274.482361 
	C272.071381,290.630524 272.051758,306.311737 272.032135,321.992920 
z"/>
<path fill="#063F80" opacity="1.000000" stroke="none" 
	d="
M287.988556,348.578491 
	C282.916565,346.362335 277.835541,343.724274 272.399048,341.098602 
	C272.036896,340.934875 272.030243,340.758728 272.015564,340.318726 
	C272.067108,334.956787 272.126648,329.858704 272.618774,324.354187 
	C277.699829,326.300293 282.348328,328.652832 287.112152,331.263275 
	C287.523132,332.003113 287.818787,332.485046 288.114410,332.967010 
	C288.069458,338.030212 288.024506,343.093384 287.988556,348.578491 
z"/>
<path fill="#023969" opacity="1.000000" stroke="none" 
	d="
M271.724915,157.273987 
	C272.050232,164.347885 272.073608,171.714752 272.063538,179.551666 
	C271.827728,172.536789 271.625305,165.051849 271.724915,157.273987 
z"/>
<path fill="#023969" opacity="1.000000" stroke="none" 
	d="
M271.807983,154.108337 
	C271.969940,154.017075 272.045624,154.507599 272.027344,154.755112 
	C271.888031,154.734955 271.767029,154.467285 271.807983,154.108337 
z"/>
<path fill="#035AA5" opacity="1.000000" stroke="none" 
	d="
M286.996826,331.005402 
	C282.348328,328.652832 277.699829,326.300293 272.720520,323.886841 
	C272.294434,323.421936 272.199127,323.017883 272.067993,322.303406 
	C272.051758,306.311737 272.071381,290.630524 272.070312,274.228851 
	C272.029968,273.340546 272.010315,273.172699 271.990631,273.004852 
	C272.026672,272.817963 272.062683,272.631104 272.180054,272.169495 
	C276.902283,271.965179 281.543182,272.035645 286.833801,272.065674 
	C287.483521,272.025238 287.961334,272.073151 287.968140,272.497314 
	C287.652039,277.853241 287.094116,282.782928 287.050446,287.717194 
	C286.922668,302.145630 286.999939,316.575867 286.996826,331.005402 
z"/>
<path fill="#0364B8" opacity="1.000000" stroke="none" 
	d="
M287.112152,331.263275 
	C286.999939,316.575867 286.922668,302.145630 287.050446,287.717194 
	C287.094116,282.782928 287.652039,277.853241 288.440674,272.475159 
	C318.594543,272.027405 348.282715,272.025970 377.970856,272.024536 
	C377.970856,272.024536 377.998779,271.998779 377.993347,272.478790 
	C377.992188,286.650940 377.996460,300.343109 378.000732,314.035248 
	C378.000732,314.035248 378.005798,314.521149 378.003387,314.764160 
	C367.266357,320.930176 356.500610,326.797699 345.807312,332.794373 
	C337.844818,337.259705 329.918732,341.796600 322.091583,346.493561 
	C318.545074,348.621765 315.553253,347.711578 312.328094,345.899292 
	C304.537445,341.521515 296.669708,337.281036 288.473724,332.976105 
	C287.818787,332.485046 287.523132,332.003113 287.112152,331.263275 
z"/>
<path fill="#0078D4" opacity="1.000000" stroke="none" 
	d="
M377.981293,271.553589 
	C348.282715,272.025970 318.594543,272.027405 288.433868,272.050995 
	C287.961334,272.073151 287.483521,272.025238 287.243958,272.010193 
	C287.004578,242.314621 287.004761,212.634125 287.000854,182.487305 
	C287.169891,182.007736 287.342987,181.994522 287.775177,181.951202 
	C317.693390,181.948318 347.352539,181.975540 377.472046,182.034882 
	C377.952209,211.738876 377.971985,241.410751 377.981293,271.553589 
z"/>
<path fill="#0179D4" opacity="1.000000" stroke="none" 
	d="
M378.356628,313.990601 
	C377.996460,300.343109 377.992188,286.650940 377.982086,272.492981 
	C402.044830,272.059906 426.113373,272.092651 450.655853,272.216553 
	C442.281097,277.518402 433.481934,282.815491 424.572693,287.920502 
	C409.322296,296.658997 394.002960,305.277222 378.356628,313.990601 
z"/>
<path fill="#042146" opacity="1.000000" stroke="none" 
	d="
M271.823822,273.097900 
	C272.010315,273.172699 272.029968,273.340546 272.040588,273.761841 
	C271.906708,273.740570 271.781860,273.465759 271.823822,273.097900 
z"/>
</svg>