<?xml version="1.0" encoding="UTF-8"?>
<svg version="1.1" xmlns="http://www.w3.org/2000/svg" width="512" height="512">
<path d="M0 0 C2.48698983 1.9326379 4.84752994 3.93894695 7.18359375 6.05078125 C8.24513672 6.99050781 8.24513672 6.99050781 9.328125 7.94921875 C22.04553728 19.86419393 29.87303465 37.78516707 30.6171875 55.1640625 C30.64069029 57.2303355 30.64156339 59.29697598 30.62109375 61.36328125 C30.61279541 62.45415039 30.60449707 63.54501953 30.59594727 64.66894531 C30.17286479 84.97088158 21.95124246 101.15154541 7.73828125 115.5234375 C-9.07923404 131.31292286 -28.57943922 135.42931278 -50.89038086 135.19604492 C-52.81640625 135.05078125 -52.81640625 135.05078125 -55.81640625 134.05078125 C-55.81640625 139.99078125 -55.81640625 145.93078125 -55.81640625 152.05078125 C-51.94095566 152.03412666 -51.94095566 152.03412666 -47.98721313 152.01713562 C-23.64986511 151.91494132 0.68745461 151.84054261 25.0249691 151.79172039 C37.53740288 151.76595205 50.04967908 151.73082741 62.56201172 151.67358398 C73.46929361 151.62370744 84.37646136 151.59148028 95.28385413 151.58033878 C101.05789357 151.57382731 106.83160654 151.55855148 112.60554123 151.52213097 C118.04415423 151.48810466 123.48230735 151.47774185 128.92101669 151.48524284 C130.91318768 151.48387128 132.90537461 151.47397865 134.89745331 151.45475388 C147.22129305 151.34169037 156.36522838 151.74668021 166.05859375 160.17578125 C172.90262397 167.63953472 173.7743932 177.31444179 173.68530273 187.0012207 C173.69340721 188.71091034 173.69340721 188.71091034 173.70167542 190.45513916 C173.71409666 194.19171799 173.69771146 197.92751615 173.6796875 201.6640625 C173.67984267 204.28281189 173.68133466 206.90156151 173.68409729 209.52030945 C173.68678948 214.99824971 173.67341387 220.47596964 173.65014648 225.95385742 C173.62358285 232.25061181 173.62178061 238.54699726 173.63353485 244.84378844 C173.64438912 250.94296723 173.63795865 257.04199375 173.62397957 263.14116478 C173.61949131 265.71692713 173.61910507 268.29270027 173.62304497 270.86846352 C173.64503398 297.89789644 169.60278425 321.1651473 150.00390625 341.296875 C131.41090515 359.45209076 109.89810709 366.58239624 84.4140625 366.3515625 C76.63827122 366.12003413 69.540747 364.47431409 62.18359375 362.05078125 C61.94125 362.72367187 61.69890625 363.3965625 61.44921875 364.08984375 C55.76521576 377.38760383 46.36381395 388.02085656 36.18359375 398.05078125 C35.32894531 398.90414063 34.47429687 399.7575 33.59375 400.63671875 C9.62050947 423.37340278 -23.23227274 434.01089538 -55.83203125 433.359375 C-87.8495104 432.11402115 -115.82923164 417.66679106 -138.81640625 396.05078125 C-139.40679687 395.52484375 -139.9971875 394.99890625 -140.60546875 394.45703125 C-157.74531545 378.53565706 -168.33504243 355.42967516 -173.81640625 333.05078125 C-174.36894514 333.05023648 -174.92148403 333.04969172 -175.49076653 333.04913044 C-188.97194641 333.03412463 -202.4527929 332.99121128 -215.93379021 332.91869068 C-222.45330244 332.88445335 -228.97258113 332.85931566 -235.4921875 332.85522461 C-241.78828703 332.85093484 -248.08386001 332.82241448 -254.37979507 332.77734947 C-256.77741551 332.76439638 -259.17509902 332.76005898 -261.57275009 332.76462746 C-264.94083718 332.76954868 -268.30739435 332.74337065 -271.67529297 332.71020508 C-273.15020958 332.72314354 -273.15020958 332.72314354 -274.65492249 332.73634338 C-282.51280418 332.6072978 -289.0810511 330.45065894 -294.9701519 325.0904665 C-301.32975483 318.48688751 -303.27433795 311.33750209 -303.2040863 302.41140747 C-303.21216461 301.16217084 -303.21216461 301.16217084 -303.22040612 299.8876971 C-303.23463352 297.11654701 -303.22759494 294.34587813 -303.22045898 291.57470703 C-303.22616531 289.57992165 -303.23313059 287.58513954 -303.24125671 285.59036255 C-303.25917496 280.18533132 -303.25802212 274.78046255 -303.25231433 269.37541056 C-303.24922031 264.85761312 -303.25531737 260.33984679 -303.26135308 255.82205379 C-303.27539256 245.16080242 -303.27384202 234.4996312 -303.26245117 223.83837891 C-303.25097258 212.85247877 -303.26504269 201.86682282 -303.29184765 190.88095486 C-303.31402481 181.43696125 -303.3206374 171.99304417 -303.31477123 162.54902637 C-303.31140505 156.91380075 -303.31379424 151.27873162 -303.33102226 145.64352798 C-303.34652118 140.34269549 -303.34250297 135.04222388 -303.32371712 129.74140549 C-303.32003931 127.80085569 -303.32311604 125.86027898 -303.33360291 123.91975403 C-303.4428488 102.02554948 -303.4428488 102.02554948 -295.56640625 93.17578125 C-287.3848144 85.11569819 -278.13334838 85.46762193 -267.39453125 85.50488281 C-265.728338 85.49613978 -264.06215313 85.48565145 -262.39598083 85.47355652 C-257.89033272 85.4457652 -253.3849595 85.44229031 -248.87923813 85.44327641 C-244.16397743 85.44014139 -239.44883947 85.41451092 -234.73364258 85.39129639 C-225.81262844 85.35077793 -216.89168732 85.33040544 -207.97059536 85.31732249 C-197.81092467 85.30143838 -187.65137799 85.26301679 -177.49177933 85.22272921 C-156.60002924 85.14038711 -135.70828505 85.08625945 -114.81640625 85.05078125 C-115.02793839 84.09984085 -115.23947052 83.14890045 -115.45741272 82.16914368 C-115.73193771 80.91619003 -116.00646271 79.66323639 -116.28930664 78.37231445 C-116.69941734 76.51277885 -116.69941734 76.51277885 -117.11781311 74.61567688 C-118.00072352 70.11021685 -118.3152046 65.81793829 -118.25390625 61.23828125 C-118.24488281 60.39499268 -118.23585937 59.5517041 -118.2265625 58.68286133 C-117.65962825 37.7121996 -109.17383857 19.84261681 -94 5.36328125 C-67.86706509 -17.53284947 -28.57235025 -19.77476113 0 0 Z " fill="#464EB8" transform="translate(320.81640625,45.94921875)"/>
<path d="M0 0 C27.07745438 -0.11686265 54.1548709 -0.20500273 81.23252678 -0.25906086 C93.8054943 -0.28482947 106.37830501 -0.31995462 118.95117188 -0.37719727 C129.91119147 -0.42707299 140.87109749 -0.45930077 151.83122742 -0.47044247 C157.63321185 -0.47695408 163.43487138 -0.4922308 169.23675156 -0.52865028 C174.70162881 -0.56267528 180.16604838 -0.57303966 185.6310215 -0.56553841 C187.63286771 -0.56691003 189.63472977 -0.57680343 191.63648415 -0.59602737 C203.98866076 -0.70879874 213.15860614 -0.32251837 222.875 8.125 C229.71903022 15.58875347 230.59079945 25.26366054 230.50170898 34.95043945 C230.50981346 36.66012909 230.50981346 36.66012909 230.51808167 38.40435791 C230.53050291 42.14093674 230.51411771 45.8767349 230.49609375 49.61328125 C230.49624892 52.23203064 230.49774091 54.85078026 230.50050354 57.4695282 C230.50319573 62.94746846 230.48982012 68.42518839 230.46655273 73.90307617 C230.4399891 80.19983056 230.43818686 86.49621601 230.4499411 92.79300719 C230.46079537 98.89218598 230.4543649 104.9912125 230.44038582 111.09038353 C230.43589756 113.66614588 230.43551132 116.24191902 230.43945122 118.81768227 C230.46144023 145.84711519 226.4191905 169.11436605 206.8203125 189.24609375 C188.2273114 207.40130951 166.71451334 214.53161499 141.23046875 214.30078125 C133.45467747 214.06925288 126.35715325 212.42353284 119 210 C118.63648438 211.00933594 118.63648438 211.00933594 118.265625 212.0390625 C112.58162201 225.33682258 103.1802202 235.97007531 93 246 C91.71802734 247.28003906 91.71802734 247.28003906 90.41015625 248.5859375 C66.43691572 271.32262153 33.58413351 281.96011413 0.984375 281.30859375 C-31.03310415 280.0632399 -59.01282539 265.61600981 -82 244 C-82.88558594 243.21109375 -82.88558594 243.21109375 -83.7890625 242.40625 C-100.80615384 226.59890449 -112.66694222 202.62358474 -117 180 C-115.23592804 180.00119339 -115.23592804 180.00119339 -113.43621826 180.00241089 C-102.31434586 180.00602437 -91.19293387 179.97805266 -80.07120895 179.9197216 C-74.35432881 179.89073761 -68.63785655 179.87260698 -62.92089844 179.87988281 C-57.39627537 179.88650451 -51.8724563 179.86382925 -46.34799957 179.82144547 C-44.24788528 179.81036478 -42.14768895 179.80956822 -40.04756927 179.81957626 C-23.56213227 180.04768099 -23.56213227 180.04768099 -9 173 C-3.34827257 167.13268527 -0.76014386 161.53056995 -0.7215271 153.32450867 C-0.7157347 152.66686817 -0.7099423 152.00922766 -0.70397437 151.33165866 C-0.68701817 149.13601324 -0.68410171 146.94057857 -0.68115234 144.74487305 C-0.67185113 143.16779569 -0.66168217 141.59072324 -0.65071106 140.01365662 C-0.62341877 135.73724 -0.60826393 131.46085631 -0.59528303 127.18437552 C-0.57964914 122.71335815 -0.55285973 118.24240797 -0.5272522 113.7714386 C-0.48046901 105.30721421 -0.44372266 96.84297717 -0.41057932 88.37868959 C-0.3723547 78.74147242 -0.32294542 69.10432275 -0.27259517 59.46716249 C-0.16928215 39.64482485 -0.08001968 19.82244446 0 0 Z " fill="#7A82EA" transform="translate(264,198)"/>
<path d="M0 0 C12.86557623 -0.1160792 25.73102696 -0.20480974 38.5970211 -0.25906086 C44.57186821 -0.28510464 50.54635584 -0.320408 56.52099609 -0.37719727 C62.29170875 -0.43170214 68.0620766 -0.46145976 73.83302689 -0.47438622 C76.02977548 -0.48359289 78.22650616 -0.50157132 80.42310715 -0.52865028 C83.51083242 -0.56518547 86.59715041 -0.56993504 89.68505859 -0.56762695 C90.58417969 -0.58560333 91.48330078 -0.60357971 92.40966797 -0.62210083 C100.75212088 -0.55504879 107.64582001 2.59459626 113.875 8.125 C120.71903022 15.58875347 121.59079945 25.26366054 121.50170898 34.95043945 C121.50981346 36.66012909 121.50981346 36.66012909 121.51808167 38.40435791 C121.53050291 42.14093674 121.51411771 45.8767349 121.49609375 49.61328125 C121.49624892 52.23203064 121.49774091 54.85078026 121.50050354 57.4695282 C121.50319573 62.94746846 121.48982012 68.42518839 121.46655273 73.90307617 C121.4399891 80.19983056 121.43818686 86.49621601 121.4499411 92.79300719 C121.46079537 98.89218598 121.4543649 104.9912125 121.44038582 111.09038353 C121.43589756 113.66614588 121.43551132 116.24191902 121.43945122 118.81768227 C121.46144023 145.84711519 117.4191905 169.11436605 97.8203125 189.24609375 C79.2273114 207.40130951 57.71451334 214.53161499 32.23046875 214.30078125 C24.45467747 214.06925288 17.35715325 212.42353284 10 210 C11.08532498 206.68690268 12.21028586 203.39313323 13.40234375 200.1171875 C17.8142565 187.95982171 22.09557025 175.75079139 22.14717102 162.6756897 C22.15432632 161.42529404 22.16148163 160.17489838 22.16885376 158.88661194 C22.17169343 157.51376368 22.17440523 156.14091515 22.17700195 154.76806641 C22.18327319 153.31219829 22.18992056 151.85633175 22.19691467 150.40046692 C22.21787152 145.63417661 22.22830627 140.86788627 22.23828125 136.1015625 C22.24233134 134.45675007 22.24644834 132.8119378 22.25063133 131.1671257 C22.26966122 123.44107931 22.28389925 115.71504237 22.2922433 107.98897707 C22.30202067 99.08434546 22.32836237 90.17996207 22.36874419 81.27541792 C22.3989296 74.3818086 22.4137143 67.48827038 22.41702431 60.59459627 C22.41937114 56.48183229 22.42828432 52.36933421 22.45348549 48.25664139 C22.4768153 44.38727036 22.48098 40.51833945 22.47072411 36.64891624 C22.4702299 35.23320613 22.47651643 33.81747396 22.49028015 32.40183067 C22.57750726 22.89448073 22.00420263 16.63644515 15.625 9.25 C10.62133234 4.96114201 6.3420492 2.52209181 0 1 C0 0.67 0 0.34 0 0 Z " fill="#464EB8" transform="translate(373,198)"/>
<path d="M0 0 C2.48698983 1.9326379 4.84752994 3.93894695 7.18359375 6.05078125 C7.89128906 6.67726563 8.59898437 7.30375 9.328125 7.94921875 C22.04553728 19.86419393 29.87303465 37.78516707 30.6171875 55.1640625 C30.64069029 57.2303355 30.64156339 59.29697598 30.62109375 61.36328125 C30.61279541 62.45415039 30.60449707 63.54501953 30.59594727 64.66894531 C30.17286479 84.97088158 21.95124246 101.15154541 7.73828125 115.5234375 C-9.03990355 131.27599658 -28.51084742 135.43055667 -50.77685547 135.19604492 C-52.88956826 135.04557041 -54.78105912 134.62409833 -56.81640625 134.05078125 C-56.82051514 133.25494629 -56.82462402 132.45911133 -56.82885742 131.63916016 C-56.86203808 127.98397937 -56.93271215 124.33041148 -57.00390625 120.67578125 C-57.00970703 119.42410156 -57.01550781 118.17242187 -57.02148438 116.8828125 C-57.22898582 108.07552878 -58.54472931 101.06623253 -64.37280273 94.22338867 C-73.38977059 85.650965 -85.30174086 86.52496376 -96.87890625 86.36328125 C-98.52411489 86.33005617 -100.16929842 86.29556184 -101.81445312 86.25976562 C-105.81496442 86.17545632 -109.81542474 86.10836993 -113.81640625 86.05078125 C-120.1613072 68.09351441 -120.01541216 47.57767562 -112.0859375 30.046875 C-103.16019151 11.75686121 -88.69931134 -2.32966985 -69.3828125 -9.1640625 C-45.6768533 -16.72521407 -20.70652417 -14.33086763 0 0 Z " fill="#7A82EA" transform="translate(320.81640625,45.94921875)"/>
<path d="M0 0 C11.18973915 8.80623373 17.01022859 21.92788489 19.484375 35.6953125 C21.02082327 49.74929521 18.10839045 63.57217404 9.5 74.9375 C6.81971266 78.14119109 4.10103243 81.19430399 1 84 C0.38898438 84.55429688 -0.22203125 85.10859375 -0.8515625 85.6796875 C-13.08726175 96.04666178 -27.5390405 97.96698148 -43 97 C-57.27575714 95.06151974 -68.7462978 87.48386222 -78.00390625 76.65625 C-87.82598312 63.58843283 -90.67259619 48.51612233 -88.5390625 32.55078125 C-85.65425449 18.48309981 -78.78692055 5.76659215 -66.62890625 -2.359375 C-45.91601953 -15.24586611 -19.61143933 -14.97056437 0 0 Z " fill="#454DB8" transform="translate(465,87)"/>
<path d="M0 0 C1.01828384 -0.00700928 2.03656769 -0.01401855 3.08570862 -0.02124023 C6.45390031 -0.03885492 9.82125279 -0.02718464 13.18945312 -0.01367188 C15.52828127 -0.01636578 17.86710832 -0.02024734 20.20593262 -0.02526855 C25.10858824 -0.03116834 30.01095245 -0.02258486 34.91357422 -0.00390625 C41.20212754 0.01888316 47.48999804 0.0057627 53.77852631 -0.01819611 C58.60834918 -0.03264087 63.4380098 -0.02805407 68.26783752 -0.01768494 C70.58671652 -0.01501401 72.90561018 -0.01830019 75.22447205 -0.02760315 C78.46384781 -0.03774659 81.70211331 -0.02229742 84.94140625 0 C86.38314964 -0.01214539 86.38314964 -0.01214539 87.85401917 -0.02453613 C94.33369705 0.05821507 94.33369705 0.05821507 97.56419373 2.38781738 C100.35806385 6.61834361 99.58237992 11.61146943 99.53320312 16.51757812 C99.56897461 18.15726563 99.56897461 18.15726563 99.60546875 19.83007812 C99.60353516 20.88195312 99.60160156 21.93382812 99.59960938 23.01757812 C99.60033447 23.97664063 99.60105957 24.93570313 99.60180664 25.92382812 C98.70320368 29.61696461 97.15349845 30.50301656 93.97070312 32.51757812 C91.25444943 32.86049755 88.96427902 32.98830679 86.26367188 32.90820312 C85.53827713 32.90254333 84.81288239 32.89688354 84.06550598 32.89105225 C81.76238304 32.86876912 79.46085089 32.818593 77.15820312 32.76757812 C75.5911684 32.74750247 74.02410914 32.72925356 72.45703125 32.71289062 C68.62764793 32.66893149 64.79944466 32.59996435 60.97070312 32.51757812 C60.97958557 33.78433884 60.98846802 35.05109955 60.99761963 36.35624695 C61.07867721 48.28943329 61.1386551 60.22256384 61.17795181 72.15596294 C61.19883379 78.29118504 61.22716316 84.42618503 61.27246094 90.5612793 C61.31589603 96.48108417 61.33983564 102.4006753 61.3502121 108.32062721 C61.3576076 110.58010028 61.37204911 112.83956154 61.39362335 115.09894371 C61.42262553 118.26177705 61.42666036 121.42372518 61.42480469 124.58666992 C61.43918579 125.52246887 61.45356689 126.45826782 61.46838379 127.42242432 C61.44169121 131.62203277 61.3238874 133.92739692 59.12738037 137.5978241 C56.22371184 140.18250818 54.4498693 140.16234775 50.59570312 140.18164062 C48.7471875 140.19130859 48.7471875 140.19130859 46.86132812 140.20117188 C45.57742187 140.18183594 44.29351562 140.1625 42.97070312 140.14257812 C41.68679687 140.16191406 40.40289062 140.18125 39.08007812 140.20117188 C37.84773438 140.19472656 36.61539063 140.18828125 35.34570312 140.18164062 C34.2190625 140.17600098 33.09242188 140.17036133 31.93164062 140.16455078 C28.97070312 139.51757812 28.97070312 139.51757812 26.81402588 137.5978241 C24.19997541 133.22966969 24.4397571 129.58704872 24.51660156 124.58666992 C24.51601746 123.59107559 24.51543335 122.59548126 24.51483154 121.56971741 C24.51761411 118.28505362 24.54871525 115.00130178 24.58007812 111.71679688 C24.58753987 109.43708288 24.59323312 107.15736247 24.597229 104.87763977 C24.61249039 98.88188928 24.65177711 92.88652732 24.69604492 86.89093018 C24.73698641 80.77109025 24.75523766 74.65118745 24.77539062 68.53125 C24.81827041 56.52652215 24.8865283 44.52208247 24.97070312 32.51757812 C23.41174316 32.55685425 23.41174316 32.55685425 21.82128906 32.59692383 C17.96001775 32.6875222 14.09884003 32.74486116 10.23681641 32.79223633 C8.56640823 32.8173589 6.89610976 32.85146364 5.22607422 32.89477539 C2.82296692 32.95553212 0.42131408 32.98380834 -1.98242188 33.00585938 C-2.72735901 33.0316658 -3.47229614 33.05747223 -4.23980713 33.08406067 C-8.08588461 33.0861344 -9.67648098 32.8556091 -12.49987793 30.15052795 C-14.20813958 27.20969397 -14.54383891 25.51576934 -14.56054688 22.13867188 C-14.56570312 21.13513672 -14.57085937 20.13160156 -14.57617188 19.09765625 C-14.56070313 18.06060547 -14.54523438 17.02355469 -14.52929688 15.95507812 C-14.54476562 14.91416016 -14.56023437 13.87324219 -14.57617188 12.80078125 C-14.57101563 11.79853516 -14.56585938 10.79628906 -14.56054688 9.76367188 C-14.55603516 8.85286865 -14.55152344 7.94206543 -14.546875 7.00366211 C-12.93360202 -0.74537506 -6.47273977 -0.05452699 0 0 Z " fill="#FDFDFE" transform="translate(98.029296875,185.482421875)"/>
<path d="M0 0 C0.66 0.33 1.32 0.66 2 1 C-3.28 6.28 -8.56 11.56 -14 17 C-14 12.95607032 -12.51908749 11.99868382 -9.8125 9.0625 C-9.03519531 8.20785156 -8.25789062 7.35320313 -7.45703125 6.47265625 C-5.09786332 4.09848566 -2.65532732 2.0327639 0 0 Z " fill="#6D75DE" transform="translate(232,47)"/>
</svg>
